<svg xmlns="http://www.w3.org/2000/svg" width="800" height="250" viewBox="0.00 0.00 800.00 250.00"><rect x="0.00" y="0.00" width="800.00" height="250.00" fill="white"/><path d="M 63.00 115.00 L 63.96 105.25 L 66.81 95.87 L 71.43 87.22 L 77.64 79.64 L 85.22 73.43 L 93.87 68.81 L 103.25 65.96 L 113.00 65.00 L 122.75 65.96 L 203.00 75.00 L 203.00 155.00 L 122.75 164.04 L 113.00 165.00 L 103.25 164.04 L 93.87 161.19 L 85.22 156.57 L 77.64 150.36 L 71.43 142.78 L 66.81 134.13 L 63.96 124.75 Z" fill="#3498db" stroke="#2980b9" stroke-width="2" fill-rule="nonzero"/><text x="113.00" y="230.00" font-family="monospace" font-size="14.0" fill="#333">Union</text><path d="M 460.00 115.00 L 430.00 166.96 L 370.00 166.96 L 340.00 115.00 L 370.00 63.04 L 430.00 63.04 Z" fill="rgba(52,152,219,0.2)" stroke="#bdc3c7" stroke-width="1" fill-rule="nonzero"/><path d="M 400.00 45.00 L 420.57 86.68 L 466.57 93.37 L 433.29 125.82 L 441.14 171.63 L 400.00 150.00 L 358.86 171.63 L 366.71 125.82 L 333.43 93.37 L 379.43 86.68 Z" fill="rgba(52,152,219,0.2)" stroke="#bdc3c7" stroke-width="1" fill-rule="nonzero"/><path d="M 408.90 63.04 L 420.57 86.68 L 445.77 90.35 L 454.38 105.26 L 433.29 125.82 L 437.97 153.15 L 430.53 166.05 L 400.00 150.00 L 369.47 166.05 L 362.03 153.15 L 366.71 125.82 L 345.62 105.26 L 354.23 90.35 L 379.43 86.68 L 391.10 63.04 Z" fill="#e74c3c" stroke="#c0392b" stroke-width="2" fill-rule="nonzero"/><text x="355.00" y="230.00" font-family="monospace" font-size="14.0" fill="#333">Intersection</text><path d="M 677.00 65.00 L 720.30 140.00 L 633.70 140.00 Z" fill="rgba(52,152,219,0.2)" stroke="#bdc3c7" stroke-width="1" fill-rule="nonzero"/><path d="M 600.04 99.69 L 608.72 86.72 L 621.69 78.04 L 637.00 75.00 L 671.23 75.00 L 682.77 75.00 L 697.00 75.00 L 712.31 78.04 L 725.28 86.72 L 733.96 99.69 L 737.00 115.00 L 733.96 130.31 L 725.28 143.28 L 712.31 151.96 L 697.00 155.00 L 637.00 155.00 L 621.69 151.96 L 608.72 143.28 L 600.04 130.31 L 597.00 115.00 Z" fill="#2ecc71" stroke="#27ae60" stroke-width="2" fill-rule="nonzero"/><text x="627.00" y="230.00" font-family="monospace" font-size="14.0" fill="#333">Difference</text></svg>