<svg xmlns="http://www.w3.org/2000/svg" width="800" height="250" viewBox="0.00 0.00 800.00 250.00"><rect x="0.00" y="0.00" width="800.00" height="250.00" fill="white"/><path d="M 133.00 158.24 L 131.57 159.10 L 127.13 161.19 L 122.51 162.85 L 117.75 164.04 L 112.90 164.76 L 108.00 165.00 L 103.10 164.76 L 98.25 164.04 L 93.49 162.85 L 88.87 161.19 L 84.43 159.10 L 80.22 156.57 L 76.28 153.65 L 72.64 150.36 L 69.35 146.72 L 66.43 142.78 L 63.90 138.57 L 61.81 134.13 L 60.15 129.51 L 58.96 124.75 L 58.24 119.90 L 58.00 115.00 L 58.24 110.10 L 58.96 105.25 L 60.15 100.49 L 61.81 95.87 L 63.90 91.43 L 66.43 87.22 L 69.35 83.28 L 72.64 79.64 L 76.28 76.35 L 80.22 73.43 L 84.43 70.90 L 88.87 68.81 L 93.49 67.15 L 98.25 65.96 L 103.10 65.24 L 108.00 65.00 L 112.90 65.24 L 117.75 65.96 L 122.51 67.15 L 127.13 68.81 L 131.57 70.90 L 133.00 71.76 L 134.43 70.90 L 138.87 68.81 L 143.49 67.15 L 148.25 65.96 L 153.10 65.24 L 158.00 65.00 L 162.90 65.24 L 167.75 65.96 L 172.51 67.15 L 177.13 68.81 L 181.57 70.90 L 185.78 73.43 L 189.72 76.35 L 193.36 79.64 L 196.65 83.28 L 199.57 87.22 L 202.10 91.43 L 204.19 95.87 L 205.85 100.49 L 207.04 105.25 L 207.76 110.10 L 208.00 115.00 L 207.76 119.90 L 207.04 124.75 L 205.85 129.51 L 204.19 134.13 L 202.10 138.57 L 199.57 142.78 L 196.65 146.72 L 193.36 150.36 L 189.72 153.65 L 185.78 156.57 L 181.57 159.10 L 177.13 161.19 L 172.51 162.85 L 167.75 164.04 L 162.90 164.76 L 158.00 165.00 L 153.10 164.76 L 148.25 164.04 L 143.49 162.85 L 138.87 161.19 L 134.43 159.10 Z" fill="#2ecc71" stroke="#27ae60" stroke-width="2" fill-rule="nonzero"/><path d="M 158.00 115.00 L 157.76 119.90 L 157.04 124.75 L 155.85 129.51 L 154.19 134.13 L 152.10 138.57 L 149.57 142.78 L 146.65 146.72 L 143.36 150.36 L 139.72 153.65 L 135.78 156.57 L 131.57 159.10 L 127.13 161.19 L 122.51 162.85 L 117.75 164.04 L 112.90 164.76 L 108.00 165.00 L 103.10 164.76 L 98.25 164.04 L 93.49 162.85 L 88.87 161.19 L 84.43 159.10 L 80.22 156.57 L 76.28 153.65 L 72.64 150.36 L 69.35 146.72 L 66.43 142.78 L 63.90 138.57 L 61.81 134.13 L 60.15 129.51 L 58.96 124.75 L 58.24 119.90 L 58.00 115.00 L 58.24 110.10 L 58.96 105.25 L 60.15 100.49 L 61.81 95.87 L 63.90 91.43 L 66.43 87.22 L 69.35 83.28 L 72.64 79.64 L 76.28 76.35 L 80.22 73.43 L 84.43 70.90 L 88.87 68.81 L 93.49 67.15 L 98.25 65.96 L 103.10 65.24 L 108.00 65.00 L 112.90 65.24 L 117.75 65.96 L 122.51 67.15 L 127.13 68.81 L 131.57 70.90 L 135.78 73.43 L 139.72 76.35 L 143.36 79.64 L 146.65 83.28 L 149.57 87.22 L 152.10 91.43 L 154.19 95.87 L 155.85 100.49 L 157.04 105.25 L 157.76 110.10 Z" fill="none" stroke="#e74c3c" stroke-width="1.5" fill-rule="nonzero"/><path d="M 208.00 115.00 L 207.76 119.90 L 207.04 124.75 L 205.85 129.51 L 204.19 134.13 L 202.10 138.57 L 199.57 142.78 L 196.65 146.72 L 193.36 150.36 L 189.72 153.65 L 185.78 156.57 L 181.57 159.10 L 177.13 161.19 L 172.51 162.85 L 167.75 164.04 L 162.90 164.76 L 158.00 165.00 L 153.10 164.76 L 148.25 164.04 L 143.49 162.85 L 138.87 161.19 L 134.43 159.10 L 130.22 156.57 L 126.28 153.65 L 122.64 150.36 L 119.35 146.72 L 116.43 142.78 L 113.90 138.57 L 111.81 134.13 L 110.15 129.51 L 108.96 124.75 L 108.24 119.90 L 108.00 115.00 L 108.24 110.10 L 108.96 105.25 L 110.15 100.49 L 111.81 95.87 L 113.90 91.43 L 116.43 87.22 L 119.35 83.28 L 122.64 79.64 L 126.28 76.35 L 130.22 73.43 L 134.43 70.90 L 138.87 68.81 L 143.49 67.15 L 148.25 65.96 L 153.10 65.24 L 158.00 65.00 L 162.90 65.24 L 167.75 65.96 L 172.51 67.15 L 177.13 68.81 L 181.57 70.90 L 185.78 73.43 L 189.72 76.35 L 193.36 79.64 L 196.65 83.28 L 199.57 87.22 L 202.10 91.43 L 204.19 95.87 L 205.85 100.49 L 207.04 105.25 L 207.76 110.10 Z" fill="none" stroke="#3498db" stroke-width="1.5" fill-rule="nonzero"/><text x="113.00" y="230.00" font-family="monospace" font-size="14.0" fill="#333">Union</text><path d="M 460.00 115.00 L 430.00 166.96 L 370.00 166.96 L 340.00 115.00 L 370.00 63.04 L 430.00 63.04 Z" fill="rgba(155,89,182,0.25)" stroke="#9b59b6" stroke-width="1.5" fill-rule="nonzero"/><path d="M 400.00 45.00 L 420.57 86.68 L 466.57 93.37 L 433.29 125.82 L 441.14 171.63 L 400.00 150.00 L 358.86 171.63 L 366.71 125.82 L 333.43 93.37 L 379.43 86.68 Z" fill="rgba(241,196,15,0.25)" stroke="#f1c40f" stroke-width="1.5" fill-rule="nonzero"/><path d="M 408.90 63.04 L 420.57 86.68 L 445.77 90.35 L 454.38 105.26 L 433.29 125.82 L 437.97 153.15 L 430.53 166.05 L 400.00 150.00 L 369.47 166.05 L 362.03 153.15 L 366.71 125.82 L 345.62 105.26 L 354.23 90.35 L 379.43 86.68 L 391.10 63.04 Z" fill="#27ae60" stroke="#1e8449" stroke-width="2.5" fill-rule="nonzero"/><text x="355.00" y="230.00" font-family="monospace" font-size="14.0" fill="#333">Intersection</text><path d="M 697.00 75.00 L 712.31 78.04 L 725.28 86.72 L 733.96 99.69 L 737.00 115.00 L 733.96 130.31 L 725.28 143.28 L 712.31 151.96 L 697.00 155.00 L 637.00 155.00 L 621.69 151.96 L 608.72 143.28 L 600.04 130.31 L 597.00 115.00 L 600.04 99.69 L 608.72 86.72 L 621.69 78.04 L 637.00 75.00 Z" fill="none" stroke="rgba(52,152,219,0.4)" stroke-width="1.5" fill-rule="nonzero"/><path d="M 600.04 99.69 L 608.72 86.72 L 621.69 78.04 L 637.00 75.00 L 671.23 75.00 L 682.77 75.00 L 697.00 75.00 L 712.31 78.04 L 725.28 86.72 L 733.96 99.69 L 737.00 115.00 L 733.96 130.31 L 725.28 143.28 L 712.31 151.96 L 697.00 155.00 L 637.00 155.00 L 621.69 151.96 L 608.72 143.28 L 600.04 130.31 L 597.00 115.00 Z" fill="#3498db" stroke="#2980b9" stroke-width="2" fill-rule="nonzero"/><path d="M 677.00 65.00 L 720.30 140.00 L 633.70 140.00 Z" fill="white" stroke="#e74c3c" stroke-width="2" fill-rule="nonzero"/><text x="627.00" y="230.00" font-family="monospace" font-size="14.0" fill="#333">Difference</text></svg>