<svg xmlns="http://www.w3.org/2000/svg" width="600" height="250" viewBox="0.00 0.00 600.00 250.00"><rect x="0.00" y="0.00" width="600.00" height="250.00" fill="white"/><path d="M 20.00 125.00 L 20.96 115.25 L 23.81 105.87 L 28.43 97.22 L 34.64 89.64 L 42.22 83.43 L 50.87 78.81 L 60.25 75.96 L 70.00 75.00 L 110.00 75.00 L 119.75 75.96 L 129.13 78.81 L 137.78 83.43 L 145.36 89.64 L 151.57 97.22 L 156.19 105.87 L 159.04 115.25 L 160.00 125.00 L 159.04 134.75 L 156.19 144.13 L 151.57 152.78 L 145.36 160.36 L 137.78 166.57 L 129.13 171.19 L 119.75 174.04 L 110.00 175.00 L 70.00 175.00 L 60.25 174.04 L 50.87 171.19 L 42.22 166.57 L 34.64 160.36 L 28.43 152.78 L 23.81 144.13 L 20.96 134.75 Z" fill="#3498db" stroke="#2980b9" stroke-width="2" fill-rule="nonzero"/><text x="60.00" y="230.00" font-family="monospace" font-size="14.0" fill="#333">Union</text><path d="M 290.00 125.00 L 289.04 134.75 L 286.19 144.13 L 281.57 152.78 L 275.36 160.36 L 267.78 166.57 L 259.13 171.19 L 249.75 174.04 L 240.00 175.00 L 230.25 174.04 L 220.87 171.19 L 212.22 166.57 L 204.64 160.36 L 198.43 152.78 L 193.81 144.13 L 190.96 134.75 L 190.00 125.00 L 190.96 115.25 L 193.81 105.87 L 198.43 97.22 L 204.64 89.64 L 212.22 83.43 L 220.87 78.81 L 230.25 75.96 L 240.00 75.00 L 249.75 75.96 L 259.13 78.81 L 267.78 83.43 L 275.36 89.64 L 281.57 97.22 L 286.19 105.87 L 289.04 115.25 Z" fill="rgba(52,152,219,0.2)" stroke="#bdc3c7" stroke-width="1" fill-rule="nonzero"/><path d="M 330.00 125.00 L 329.04 134.75 L 326.19 144.13 L 321.57 152.78 L 315.36 160.36 L 307.78 166.57 L 299.13 171.19 L 289.75 174.04 L 280.00 175.00 L 270.25 174.04 L 260.87 171.19 L 252.22 166.57 L 244.64 160.36 L 238.43 152.78 L 233.81 144.13 L 230.96 134.75 L 230.00 125.00 L 230.96 115.25 L 233.81 105.87 L 238.43 97.22 L 244.64 89.64 L 252.22 83.43 L 260.87 78.81 L 270.25 75.96 L 280.00 75.00 L 289.75 75.96 L 299.13 78.81 L 307.78 83.43 L 315.36 89.64 L 321.57 97.22 L 326.19 105.87 L 329.04 115.25 Z" fill="rgba(52,152,219,0.2)" stroke="#bdc3c7" stroke-width="1" fill-rule="nonzero"/><path d="M 290.00 125.00 L 289.04 134.75 L 286.19 144.13 L 281.57 152.78 L 275.36 160.36 L 267.78 166.57 L 260.00 170.73 L 252.22 166.57 L 244.64 160.36 L 238.43 152.78 L 233.81 144.13 L 230.96 134.75 L 230.00 125.00 L 230.96 115.25 L 233.81 105.87 L 238.43 97.22 L 244.64 89.64 L 252.22 83.43 L 260.00 79.27 L 267.78 83.43 L 275.36 89.64 L 281.57 97.22 L 286.19 105.87 L 289.04 115.25 Z" fill="#e74c3c" stroke="#c0392b" stroke-width="2" fill-rule="nonzero"/><text x="210.00" y="230.00" font-family="monospace" font-size="14.0" fill="#333">Intersection</text><path d="M 530.00 125.00 L 529.04 134.75 L 526.19 144.13 L 521.57 152.78 L 515.36 160.36 L 507.78 166.57 L 499.13 171.19 L 489.75 174.04 L 480.00 175.00 L 470.25 174.04 L 460.87 171.19 L 452.22 166.57 L 444.64 160.36 L 438.43 152.78 L 433.81 144.13 L 430.96 134.75 L 430.00 125.00 L 430.96 115.25 L 433.81 105.87 L 438.43 97.22 L 444.64 89.64 L 452.22 83.43 L 460.87 78.81 L 470.25 75.96 L 480.00 75.00 L 489.75 75.96 L 499.13 78.81 L 507.78 83.43 L 515.36 89.64 L 521.57 97.22 L 526.19 105.87 L 529.04 115.25 Z" fill="rgba(52,152,219,0.2)" stroke="#bdc3c7" stroke-width="1" fill-rule="nonzero"/><path d="M 390.96 115.25 L 393.81 105.87 L 398.43 97.22 L 404.64 89.64 L 412.22 83.43 L 420.87 78.81 L 430.25 75.96 L 440.00 75.00 L 449.75 75.96 L 459.13 78.81 L 460.00 79.27 L 460.00 170.73 L 459.13 171.19 L 449.75 174.04 L 440.00 175.00 L 430.25 174.04 L 420.87 171.19 L 412.22 166.57 L 404.64 160.36 L 398.43 152.78 L 393.81 144.13 L 390.96 134.75 L 390.00 125.00 Z" fill="#2ecc71" stroke="#27ae60" stroke-width="2" fill-rule="nonzero"/><text x="410.00" y="230.00" font-family="monospace" font-size="14.0" fill="#333">Difference</text></svg>