<svg xmlns="http://www.w3.org/2000/svg" width="400" height="250" viewBox="0.00 0.00 400.00 250.00"><rect x="0.00" y="0.00" width="400.00" height="250.00" fill="#f8f9fa"/><path d="M 12.05 187.35 L 18.62 170.44 L 26.59 154.96 L 35.96 140.98 L 46.65 128.62 L 58.45 118.01 L 71.08 109.20 L 84.23 102.13 L 97.62 96.66 L 111.06 92.56 L 124.42 89.62 L 150.60 86.29 L 200.00 85.00 L 243.18 83.95 L 261.09 81.71 L 275.75 77.91 L 287.15 72.58 L 296.26 65.34 L 304.47 54.47 L 312.05 37.35" fill="none" stroke="#9b59b6" stroke-width="2" fill-rule="nonzero"/><path d="M 26.28 192.09 L 32.30 176.57 L 39.51 162.57 L 47.89 150.07 L 57.35 139.13 L 67.76 129.77 L 78.91 121.99 L 90.60 115.71 L 102.62 110.80 L 127.13 104.37 L 151.77 101.25 L 200.00 100.00 L 244.35 98.90 L 263.80 96.46 L 280.74 92.05 L 294.98 85.37 L 306.96 75.85 L 312.35 69.62 L 317.39 62.08 L 322.07 52.98 L 326.28 42.09" fill="none" stroke="#3498db" stroke-width="2" fill-rule="nonzero"/><path d="M 38.62 196.21 L 44.17 181.89 L 50.72 169.16 L 58.23 157.95 L 66.63 148.24 L 75.83 139.96 L 85.70 133.08 L 96.11 127.48 L 106.94 123.06 L 129.49 117.15 L 152.78 114.21 L 200.00 113.00 L 245.36 111.86 L 266.16 109.24 L 285.07 104.31 L 301.77 96.46 L 309.27 91.22 L 316.24 84.95 L 322.69 77.50 L 328.60 68.67 L 333.93 58.29 L 338.62 46.21" fill="none" stroke="#1abc9c" stroke-width="2" fill-rule="nonzero"/><path d="M 61.38 203.79 L 66.07 191.71 L 71.40 181.33 L 77.31 172.50 L 83.76 165.05 L 90.73 158.78 L 98.23 153.54 L 114.93 145.69 L 133.84 140.76 L 154.64 138.14 L 200.00 137.00 L 247.22 135.79 L 270.51 132.85 L 293.06 126.94 L 303.89 122.52 L 314.30 116.92 L 324.17 110.04 L 333.37 101.76 L 341.77 92.05 L 349.28 80.84 L 355.83 68.11 L 361.38 53.79" fill="none" stroke="#1abc9c" stroke-width="2" fill-rule="nonzero"/><path d="M 73.72 207.91 L 77.93 197.02 L 82.61 187.92 L 87.65 180.38 L 93.04 174.15 L 105.02 164.63 L 119.26 157.95 L 136.20 153.54 L 155.65 151.10 L 200.00 150.00 L 248.23 148.75 L 272.87 145.63 L 297.38 139.20 L 309.40 134.29 L 321.09 128.01 L 332.24 120.23 L 342.65 110.87 L 352.11 99.93 L 360.49 87.43 L 367.70 73.43 L 373.72 57.91" fill="none" stroke="#3498db" stroke-width="2" fill-rule="nonzero"/><path d="M 87.95 212.65 L 95.53 195.53 L 103.74 184.66 L 112.85 177.42 L 124.25 172.09 L 138.91 168.29 L 156.82 166.05 L 200.00 165.00 L 249.40 163.71 L 275.58 160.38 L 288.94 157.44 L 302.38 153.34 L 315.77 147.87 L 328.92 140.80 L 341.55 131.99 L 353.35 121.38 L 364.04 109.02 L 373.41 95.04 L 381.38 79.56 L 387.95 62.65" fill="none" stroke="#9b59b6" stroke-width="2" fill-rule="nonzero"/><path d="M 50.00 200.00 L 55.12 186.80 L 61.06 175.24 L 67.77 165.23 L 75.20 156.64 L 83.28 149.37 L 91.97 143.31 L 101.21 138.35 L 110.94 134.38 L 121.11 131.28 L 131.67 128.96 L 153.71 126.17 L 176.64 125.15 L 200.00 125.00 L 223.36 124.85 L 246.29 123.83 L 268.33 121.04 L 278.89 118.72 L 289.06 115.62 L 298.79 111.65 L 308.03 106.69 L 316.72 100.63 L 324.80 93.36 L 332.23 84.77 L 338.94 74.76 L 344.88 63.20 L 350.00 50.00" fill="none" stroke="#2c3e50" stroke-width="3" fill-rule="nonzero"/><line x1="50.00" y1="200.00" x2="100.00" y2="50.00" stroke="#e74c3c" stroke-width="1" stroke-linecap="round"/><line x1="300.00" y1="200.00" x2="350.00" y2="50.00" stroke="#e74c3c" stroke-width="1" stroke-linecap="round"/><circle cx="50.00" cy="200.00" r="5.00" fill="#2c3e50" stroke="#fff" stroke-width="1.5"/><circle cx="100.00" cy="50.00" r="4.00" fill="#e74c3c" stroke="#fff" stroke-width="1.5"/><circle cx="300.00" cy="200.00" r="4.00" fill="#e74c3c" stroke="#fff" stroke-width="1.5"/><circle cx="350.00" cy="50.00" r="5.00" fill="#2c3e50" stroke="#fff" stroke-width="1.5"/></svg>