<svg xmlns="http://www.w3.org/2000/svg" width="800" height="300" viewBox="0.00 0.00 800.00 300.00"><rect x="0.00" y="0.00" width="800.00" height="300.00" fill="#f8f9fa"/><path d="M 11.19 240.30 L 17.20 219.65 L 24.46 200.84 L 33.05 183.78 L 42.98 168.47 L 54.24 154.99 L 66.67 143.43 L 80.01 133.88 L 93.91 126.31 L 108.03 120.57 L 122.12 116.43 L 149.58 111.78 L 175.63 110.21 L 200.00 110.00 L 222.36 109.82 L 242.16 108.65 L 258.79 105.88 L 272.03 101.31 L 282.74 94.60 L 292.59 84.10 L 297.50 76.51 L 302.35 66.86 L 306.97 54.86 L 311.19 40.30" fill="none" stroke="#9b59b6" stroke-width="2" fill-rule="nonzero"/><path d="M 25.75 243.94 L 31.42 224.43 L 38.19 206.90 L 46.07 191.23 L 55.06 177.37 L 65.13 165.30 L 76.16 155.05 L 87.96 146.60 L 100.29 139.88 L 112.93 134.75 L 125.70 131.00 L 151.13 126.70 L 176.01 125.20 L 200.00 125.00 L 222.73 124.81 L 243.71 123.57 L 262.37 120.45 L 278.42 114.88 L 285.55 111.00 L 292.22 106.22 L 298.57 100.31 L 304.67 92.99 L 310.53 83.95 L 316.07 72.91 L 321.18 59.64 L 325.75 43.94" fill="none" stroke="#3498db" stroke-width="2" fill-rule="nonzero"/><path d="M 38.36 247.09 L 43.74 228.57 L 50.08 212.15 L 57.35 197.68 L 65.53 185.07 L 74.57 174.24 L 84.38 165.12 L 94.85 157.62 L 105.83 151.64 L 117.19 147.03 L 128.80 143.62 L 152.47 139.63 L 176.33 138.20 L 200.00 138.00 L 223.06 137.81 L 245.05 136.50 L 265.47 133.07 L 283.95 126.64 L 292.44 122.03 L 300.44 116.29 L 308.01 109.25 L 315.14 100.70 L 321.81 90.41 L 327.96 78.16 L 333.51 63.78 L 338.36 47.09" fill="none" stroke="#1abc9c" stroke-width="2" fill-rule="nonzero"/><path d="M 61.64 252.91 L 66.49 236.22 L 72.04 221.84 L 78.19 209.59 L 84.86 199.30 L 91.99 190.75 L 99.56 183.71 L 107.56 177.97 L 116.05 173.36 L 134.53 166.93 L 154.95 163.50 L 176.94 162.19 L 200.00 162.00 L 223.67 161.80 L 247.53 160.37 L 271.20 156.38 L 282.81 152.97 L 294.17 148.36 L 305.15 142.38 L 315.62 134.88 L 325.43 125.76 L 334.47 114.93 L 342.65 102.32 L 349.92 87.85 L 356.26 71.43 L 361.64 52.91" fill="none" stroke="#1abc9c" stroke-width="2" fill-rule="nonzero"/><path d="M 74.25 256.06 L 78.82 240.36 L 83.93 227.09 L 89.47 216.05 L 95.33 207.01 L 101.43 199.69 L 107.78 193.78 L 114.45 189.00 L 121.58 185.12 L 137.63 179.55 L 156.29 176.43 L 177.27 175.19 L 200.00 175.00 L 223.99 174.80 L 248.87 173.30 L 274.30 169.00 L 287.07 165.25 L 299.71 160.12 L 312.04 153.40 L 323.84 144.95 L 334.87 134.70 L 344.94 122.63 L 353.93 108.77 L 361.81 93.10 L 368.58 75.57 L 374.25 56.06" fill="none" stroke="#3498db" stroke-width="2" fill-rule="nonzero"/><path d="M 88.81 259.70 L 93.03 245.14 L 97.65 233.14 L 102.50 223.49 L 107.41 215.90 L 117.26 205.40 L 127.97 198.69 L 141.21 194.12 L 157.84 191.35 L 177.64 190.18 L 200.00 190.00 L 224.37 189.79 L 250.42 188.22 L 277.88 183.57 L 291.97 179.43 L 306.09 173.69 L 319.99 166.12 L 333.33 156.57 L 345.76 145.01 L 357.02 131.53 L 366.95 116.22 L 375.54 99.16 L 382.80 80.35 L 388.81 59.70" fill="none" stroke="#9b59b6" stroke-width="2" fill-rule="nonzero"/><path d="M 50.00 250.00 L 55.12 232.40 L 61.06 216.99 L 67.77 203.64 L 75.20 192.19 L 83.28 182.50 L 91.97 174.41 L 101.21 167.80 L 110.94 162.50 L 121.11 158.37 L 131.67 155.27 L 142.55 153.05 L 153.71 151.56 L 176.64 150.20 L 200.00 150.00 L 223.36 149.80 L 246.29 148.44 L 257.45 146.95 L 268.33 144.73 L 278.89 141.63 L 289.06 137.50 L 298.79 132.20 L 308.03 125.59 L 316.72 117.50 L 324.80 107.81 L 332.23 96.36 L 338.94 83.01 L 344.88 67.60 L 350.00 50.00" fill="none" stroke="#2c3e50" stroke-width="3" fill-rule="nonzero"/><line x1="50.00" y1="250.00" x2="100.00" y2="50.00" stroke="#e74c3c" stroke-width="1" stroke-linecap="round"/><line x1="300.00" y1="250.00" x2="350.00" y2="50.00" stroke="#e74c3c" stroke-width="1" stroke-linecap="round"/><circle cx="50.00" cy="250.00" r="5.00" fill="#2c3e50" stroke="#fff" stroke-width="1.5"/><circle cx="100.00" cy="50.00" r="4.00" fill="#e74c3c" stroke="#fff" stroke-width="1.5"/><circle cx="300.00" cy="250.00" r="4.00" fill="#e74c3c" stroke="#fff" stroke-width="1.5"/><circle cx="350.00" cy="50.00" r="5.00" fill="#2c3e50" stroke="#fff" stroke-width="1.5"/><path d="M 416.72 177.81 L 436.93 149.39 L 457.60 124.21 L 478.89 102.26 L 501.00 83.62 L 524.14 68.46 L 536.15 62.27 L 548.46 57.08 L 561.05 52.95 L 573.88 49.94 L 586.89 48.11 L 600.00 47.50 L 613.11 48.11 L 626.12 49.94 L 638.95 52.95 L 651.54 57.08 L 663.85 62.27 L 675.86 68.46 L 699.00 83.62 L 721.11 102.26 L 742.40 124.21 L 763.07 149.39 L 783.28 177.81" fill="none" stroke="#9b59b6" stroke-width="2" fill-rule="nonzero"/><path d="M 429.20 186.13 L 448.86 158.48 L 468.81 134.17 L 489.15 113.21 L 510.00 95.62 L 531.49 81.53 L 553.72 71.12 L 565.11 67.39 L 576.64 64.69 L 588.29 63.05 L 600.00 62.50 L 611.71 63.05 L 623.36 64.69 L 634.89 67.39 L 646.28 71.12 L 668.51 81.53 L 690.00 95.62 L 710.85 113.21 L 731.19 134.17 L 751.14 158.48 L 770.80 186.13" fill="none" stroke="#3498db" stroke-width="2" fill-rule="nonzero"/><path d="M 440.02 193.34 L 459.20 166.36 L 478.53 142.81 L 498.04 122.69 L 517.80 106.03 L 537.87 92.86 L 558.29 83.30 L 579.04 77.46 L 600.00 75.50 L 620.96 77.46 L 641.71 83.30 L 662.13 92.86 L 682.20 106.03 L 701.96 122.69 L 721.47 142.81 L 740.80 166.36 L 759.98 193.34" fill="none" stroke="#1abc9c" stroke-width="2" fill-rule="nonzero"/><path d="M 459.98 206.66 L 478.30 180.91 L 496.47 158.75 L 514.46 140.20 L 532.20 125.22 L 549.63 113.78 L 566.71 105.77 L 583.46 101.05 L 600.00 99.50 L 616.54 101.05 L 633.29 105.77 L 650.37 113.78 L 667.80 125.22 L 685.54 140.20 L 703.53 158.75 L 721.70 180.91 L 740.02 206.66" fill="none" stroke="#1abc9c" stroke-width="2" fill-rule="nonzero"/><path d="M 470.80 213.87 L 488.64 188.78 L 506.19 167.39 L 523.35 149.68 L 540.00 135.62 L 556.01 125.11 L 571.28 117.94 L 585.86 113.83 L 600.00 112.50 L 614.14 113.83 L 628.72 117.94 L 643.99 125.11 L 660.00 135.62 L 676.65 149.68 L 693.81 167.39 L 711.36 188.78 L 729.20 213.87" fill="none" stroke="#3498db" stroke-width="2" fill-rule="nonzero"/><path d="M 483.28 222.19 L 500.57 197.87 L 517.40 177.36 L 533.61 160.63 L 549.00 147.62 L 563.36 138.18 L 576.54 131.98 L 588.62 128.57 L 600.00 127.50 L 611.38 128.57 L 623.46 131.98 L 636.64 138.18 L 651.00 147.62 L 666.39 160.63 L 682.60 177.36 L 699.43 197.87 L 716.72 222.19" fill="none" stroke="#9b59b6" stroke-width="2" fill-rule="nonzero"/><path d="M 450.00 200.00 L 468.75 173.63 L 487.50 150.78 L 506.25 131.45 L 525.00 115.62 L 543.75 103.32 L 553.12 98.49 L 562.50 94.53 L 571.88 91.46 L 581.25 89.26 L 590.62 87.94 L 600.00 87.50 L 609.38 87.94 L 618.75 89.26 L 628.12 91.46 L 637.50 94.53 L 646.88 98.49 L 656.25 103.32 L 675.00 115.62 L 693.75 131.45 L 712.50 150.78 L 731.25 173.63 L 750.00 200.00" fill="none" stroke="#2c3e50" stroke-width="3" fill-rule="nonzero"/><line x1="450.00" y1="200.00" x2="550.00" y2="50.00" stroke="#e74c3c" stroke-width="1" stroke-linecap="round"/><line x1="650.00" y1="50.00" x2="750.00" y2="200.00" stroke="#e74c3c" stroke-width="1" stroke-linecap="round"/><circle cx="450.00" cy="200.00" r="5.00" fill="#2c3e50" stroke="#fff" stroke-width="1.5"/><circle cx="550.00" cy="50.00" r="4.00" fill="#e74c3c" stroke="#fff" stroke-width="1.5"/><circle cx="650.00" cy="50.00" r="4.00" fill="#e74c3c" stroke="#fff" stroke-width="1.5"/><circle cx="750.00" cy="200.00" r="5.00" fill="#2c3e50" stroke="#fff" stroke-width="1.5"/></svg>