<svg xmlns="http://www.w3.org/2000/svg" width="891.0295815181194" height="232.76092666271452" viewBox="-15.51 3.62 445.51 116.38"><path d="M 45.49 54.45 L 45.12 60.09 L 43.93 66.00 L 41.97 71.57 L 39.23 76.63 L 35.71 81.00 L 31.42 84.48 L 26.43 86.77 L 21.00 87.58 L 15.57 86.77 L 10.58 84.48 L 6.29 81.00 L 2.77 76.63 L 0.03 71.57 L -1.93 66.00 L -3.12 60.09 L -3.51 54.00 L -3.12 47.91 L -1.93 42.00 L 0.03 36.43 L 2.77 31.37 L 6.29 27.00 L 10.58 23.52 L 15.57 21.23 L 21.00 20.42 L 26.43 21.23 L 31.42 23.52 L 35.71 27.00 L 39.23 31.37 L 41.97 36.43 L 43.93 42.00 L 45.12 47.91 L 45.49 53.55 L 31.51 54.45 L 31.21 49.75 L 30.40 45.72 L 29.13 42.13 L 27.52 39.16 L 25.74 36.94 L 23.98 35.51 L 22.40 34.79 L 21.00 34.58 L 19.60 34.79 L 18.02 35.51 L 16.26 36.94 L 14.48 39.16 L 12.87 42.13 L 11.60 45.72 L 10.79 49.75 L 10.51 54.00 L 10.79 58.25 L 11.60 62.28 L 12.87 65.87 L 14.48 68.84 L 16.26 71.06 L 18.02 72.49 L 19.60 73.21 L 21.00 73.42 L 22.40 73.21 L 23.98 72.49 L 25.74 71.06 L 27.52 68.84 L 29.13 65.87 L 30.40 62.28 L 31.21 58.25 L 31.51 53.55 Z" fill="#1a1a2e" stroke="#ffffff" stroke-width="3" stroke-linejoin="round" paint-order="stroke fill" fill-rule="nonzero"/><path d="M 49.00 24.00 L 49.00 84.00 L 35.00 84.00 L 35.00 24.00 Z" fill="#1a1a2e" stroke="#ffffff" stroke-width="3" stroke-linejoin="round" paint-order="stroke fill" fill-rule="nonzero"/><path d="M 71.00 24.00 L 71.00 108.00 L 57.00 108.00 L 57.00 24.00 Z" fill="#1a1a2e" stroke="#ffffff" stroke-width="3" stroke-linejoin="round" paint-order="stroke fill" fill-rule="nonzero"/><path d="M 64.55 17.02 L 71.35 17.56 L 78.45 19.27 L 85.09 22.10 L 91.02 25.98 L 96.01 30.82 L 99.82 36.51 L 102.23 42.83 L 103.05 49.50 L 102.23 56.17 L 99.82 62.49 L 96.01 68.18 L 91.02 73.02 L 85.09 76.90 L 78.45 79.73 L 71.35 81.44 L 64.55 81.98 L 63.45 68.02 L 69.14 67.58 L 74.04 66.39 L 78.47 64.51 L 82.23 62.04 L 85.20 59.16 L 87.31 56.02 L 88.54 52.78 L 88.95 49.50 L 88.54 46.22 L 87.31 42.98 L 85.20 39.84 L 82.23 36.96 L 78.47 34.49 L 74.04 32.61 L 69.14 31.42 L 63.45 30.98 Z" fill="#1a1a2e" stroke="#ffffff" stroke-width="3" stroke-linejoin="round" paint-order="stroke fill" fill-rule="nonzero"/><path d="M 125.00 24.00 L 125.00 108.00 L 111.00 108.00 L 111.00 24.00 Z" fill="#1a1a2e" stroke="#ffffff" stroke-width="3" stroke-linejoin="round" paint-order="stroke fill" fill-rule="nonzero"/><path d="M 118.55 17.02 L 125.35 17.56 L 132.45 19.27 L 139.09 22.10 L 145.02 25.98 L 150.01 30.82 L 153.82 36.51 L 156.23 42.83 L 157.05 49.50 L 156.23 56.17 L 153.82 62.49 L 150.01 68.18 L 145.02 73.02 L 139.09 76.90 L 132.45 79.73 L 125.35 81.44 L 118.55 81.98 L 117.45 68.02 L 123.14 67.58 L 128.04 66.39 L 132.47 64.51 L 136.23 62.04 L 139.20 59.16 L 141.31 56.02 L 142.54 52.78 L 142.95 49.50 L 142.54 46.22 L 141.31 42.98 L 139.20 39.84 L 136.23 36.96 L 132.47 34.49 L 128.04 32.61 L 123.14 31.42 L 117.45 30.98 Z" fill="#1a1a2e" stroke="#ffffff" stroke-width="3" stroke-linejoin="round" paint-order="stroke fill" fill-rule="nonzero"/><path d="M 179.00 24.00 L 179.00 84.00 L 165.00 84.00 L 165.00 24.00 Z" fill="#1a1a2e" stroke="#ffffff" stroke-width="3" stroke-linejoin="round" paint-order="stroke fill" fill-rule="nonzero"/><path d="M 200.69 30.97 L 195.91 31.44 L 191.98 32.63 L 188.35 34.57 L 185.17 37.17 L 182.57 40.35 L 180.63 43.98 L 179.44 47.91 L 178.97 52.69 L 165.03 51.31 L 165.64 45.17 L 167.63 38.59 L 170.87 32.54 L 175.23 27.23 L 180.54 22.87 L 186.59 19.63 L 193.17 17.64 L 199.31 17.03 Z" fill="#1a1a2e" stroke="#ffffff" stroke-width="3" stroke-linejoin="round" paint-order="stroke fill" fill-rule="nonzero"/><path d="M 255.48 54.48 L 255.09 60.14 L 253.83 66.10 L 251.74 71.71 L 248.83 76.78 L 245.13 81.14 L 240.65 84.56 L 235.53 86.79 L 230.00 87.57 L 224.47 86.79 L 219.35 84.56 L 214.87 81.14 L 211.17 76.78 L 208.26 71.71 L 206.17 66.10 L 204.91 60.14 L 204.48 54.00 L 204.91 47.86 L 206.17 41.90 L 208.26 36.29 L 211.17 31.22 L 214.87 26.86 L 219.35 23.44 L 224.47 21.21 L 230.00 20.43 L 235.53 21.21 L 240.65 23.44 L 245.13 26.86 L 248.83 31.22 L 251.74 36.29 L 253.83 41.90 L 255.09 47.86 L 255.48 53.52 L 241.52 54.48 L 241.19 49.80 L 240.35 45.82 L 239.02 42.26 L 237.33 39.30 L 235.43 37.07 L 233.50 35.60 L 231.69 34.81 L 230.00 34.57 L 228.31 34.81 L 226.50 35.60 L 224.57 37.07 L 222.67 39.30 L 220.98 42.26 L 219.65 45.82 L 218.81 49.80 L 218.52 54.00 L 218.81 58.20 L 219.65 62.18 L 220.98 65.74 L 222.67 68.70 L 224.57 70.93 L 226.50 72.40 L 228.31 73.19 L 230.00 73.43 L 231.69 73.19 L 233.50 72.40 L 235.43 70.93 L 237.33 68.70 L 239.02 65.74 L 240.35 62.18 L 241.19 58.20 L 241.52 53.52 Z" fill="#1a1a2e" stroke="#ffffff" stroke-width="3" stroke-linejoin="round" paint-order="stroke fill" fill-rule="nonzero"/><path d="M 265.91 20.25 L 303.91 80.25 L 292.09 87.75 L 254.09 27.75 Z" fill="#1a1a2e" stroke="#ffffff" stroke-width="3" stroke-linejoin="round" paint-order="stroke fill" fill-rule="nonzero"/><path d="M 303.91 27.75 L 265.91 87.75 L 254.09 80.25 L 292.09 20.25 Z" fill="#1a1a2e" stroke="#ffffff" stroke-width="3" stroke-linejoin="round" paint-order="stroke fill" fill-rule="nonzero"/><path d="M 317.67 24.00 L 317.67 63.00 L 303.67 63.00 L 303.67 24.00 Z" fill="#1a1a2e" stroke="#ffffff" stroke-width="3" stroke-linejoin="round" paint-order="stroke fill" fill-rule="nonzero"/><path d="M 317.63 62.31 L 317.88 64.81 L 318.41 66.56 L 319.27 68.17 L 320.42 69.58 L 321.83 70.73 L 323.44 71.59 L 325.19 72.12 L 327.00 72.30 L 328.81 72.12 L 330.56 71.59 L 332.17 70.73 L 333.58 69.58 L 334.73 68.17 L 335.59 66.56 L 336.12 64.81 L 336.37 62.31 L 350.30 63.69 L 349.92 67.56 L 348.59 71.94 L 346.43 75.98 L 343.52 79.52 L 339.98 82.43 L 335.94 84.59 L 331.56 85.92 L 327.00 86.37 L 322.44 85.92 L 318.06 84.59 L 314.02 82.43 L 310.48 79.52 L 307.57 75.98 L 305.41 71.94 L 304.08 67.56 L 303.70 63.69 Z" fill="#1a1a2e" stroke="#ffffff" stroke-width="3" stroke-linejoin="round" paint-order="stroke fill" fill-rule="nonzero"/><path d="M 336.33 63.00 L 336.33 24.00 L 350.33 24.00 L 350.33 63.00 Z" fill="#1a1a2e" stroke="#ffffff" stroke-width="3" stroke-linejoin="round" paint-order="stroke fill" fill-rule="nonzero"/><path d="M 350.33 24.00 L 350.33 84.00 L 336.33 84.00 L 336.33 24.00 Z" fill="#1a1a2e" stroke="#ffffff" stroke-width="3" stroke-linejoin="round" paint-order="stroke fill" fill-rule="nonzero"/><path d="M 370.00 24.00 L 370.00 84.00 L 356.00 84.00 L 356.00 24.00 Z" fill="#1a1a2e" stroke="#ffffff" stroke-width="3" stroke-linejoin="round" paint-order="stroke fill" fill-rule="nonzero"/><path d="M 356.00 83.82 L 356.42 68.09 L 357.65 53.18 L 359.65 40.16 L 362.40 29.61 L 366.43 21.26 L 375.00 15.62 L 383.57 21.26 L 387.60 29.61 L 390.35 40.16 L 392.35 53.18 L 393.58 68.09 L 394.00 83.82 L 380.00 84.18 L 379.60 68.85 L 378.44 54.82 L 376.62 42.99 L 374.40 34.47 L 372.64 30.83 L 375.00 32.38 L 377.36 30.83 L 375.60 34.47 L 373.38 42.99 L 371.56 54.82 L 370.40 68.85 L 370.00 84.18 Z" fill="#1a1a2e" stroke="#ffffff" stroke-width="3" stroke-linejoin="round" paint-order="stroke fill" fill-rule="nonzero"/><path d="M 394.00 24.00 L 394.00 84.00 L 380.00 84.00 L 380.00 24.00 Z" fill="#1a1a2e" stroke="#ffffff" stroke-width="3" stroke-linejoin="round" paint-order="stroke fill" fill-rule="nonzero"/><path d="M 380.00 83.82 L 380.42 68.09 L 381.65 53.18 L 383.65 40.16 L 386.40 29.61 L 390.43 21.26 L 399.00 15.62 L 407.57 21.26 L 411.60 29.61 L 414.35 40.16 L 416.35 53.18 L 417.58 68.09 L 418.00 83.82 L 404.00 84.18 L 403.60 68.85 L 402.44 54.82 L 400.62 42.99 L 398.40 34.47 L 396.64 30.83 L 399.00 32.38 L 401.36 30.83 L 399.60 34.47 L 397.38 42.99 L 395.56 54.82 L 394.40 68.85 L 394.00 84.18 Z" fill="#1a1a2e" stroke="#ffffff" stroke-width="3" stroke-linejoin="round" paint-order="stroke fill" fill-rule="nonzero"/><path d="M 418.00 24.00 L 418.00 84.00 L 404.00 84.00 L 404.00 24.00 Z" fill="#1a1a2e" stroke="#ffffff" stroke-width="3" stroke-linejoin="round" paint-order="stroke fill" fill-rule="nonzero"/></svg>