<svg xmlns="http://www.w3.org/2000/svg" width="400" height="300" viewBox="0.00 0.00 400.00 300.00"><rect x="0.00" y="0.00" width="400.00" height="300.00" fill="white"/><path d="M 200.00 63.00 L 212.92 132.22 L 282.75 123.11 L 220.90 156.79 L 251.14 220.39 L 200.00 171.98 L 148.86 220.39 L 179.10 156.79 L 117.25 123.11 L 187.08 132.22 Z" fill="none" stroke="#e74c3c" stroke-width="2" fill-rule="nonzero"/><path d="M 200.00 75.99 L 199.39 150.84 L 270.38 127.13 L 199.01 149.68 L 243.50 209.87 L 200.00 148.96 L 156.50 209.87 L 200.99 149.68 L 129.62 127.13 L 200.61 150.84 Z" fill="none" stroke="#f39c12" stroke-width="2" fill-rule="nonzero"/><path d="M 200.00 88.99 L 185.86 169.47 L 258.02 131.15 L 177.11 142.56 L 235.86 199.36 L 200.00 125.94 L 164.14 199.36 L 222.89 142.56 L 141.98 131.15 L 214.14 169.47 Z" fill="none" stroke="#f1c40f" stroke-width="2" fill-rule="nonzero"/><path d="M 200.00 101.99 L 172.32 188.09 L 245.66 135.16 L 155.22 135.45 L 228.22 188.84 L 200.00 102.91 L 171.78 188.84 L 244.78 135.45 L 154.34 135.16 L 227.68 188.09 Z" fill="none" stroke="#2ecc71" stroke-width="2" fill-rule="nonzero"/><path d="M 200.00 114.98 L 158.79 206.72 L 233.30 139.18 L 133.32 128.34 L 220.58 178.33 L 200.00 79.89 L 179.42 178.33 L 266.68 128.34 L 166.70 139.18 L 241.21 206.72 Z" fill="none" stroke="#3498db" stroke-width="2" fill-rule="nonzero"/><path d="M 200.00 127.98 L 145.26 225.34 L 220.94 143.20 L 111.43 121.22 L 212.94 167.82 L 200.00 56.87 L 187.06 167.82 L 288.57 121.22 L 179.06 143.20 L 254.74 225.34 Z" fill="none" stroke="#9b59b6" stroke-width="2" fill-rule="nonzero"/><path d="M 200.00 50.00 L 226.45 113.59 L 295.11 119.10 L 242.80 163.91 L 258.78 230.90 L 200.00 195.00 L 141.22 230.90 L 157.20 163.91 L 104.89 119.10 L 173.55 113.59 Z" fill="none" stroke="#2c3e50" stroke-width="3" fill-rule="nonzero"/><circle cx="200.00" cy="150.00" r="4.00" fill="#2c3e50" stroke="#fff" stroke-width="1.5"/></svg>