<?xml version="1.0" encoding="UTF-8"?>
<svg xmlns="http://www.w3.org/2000/svg" viewBox="0 0 800 400" width="800" height="400">
<rect width="100%" height="100%" fill="#1a1a2e"/>
<text x="320" y="30" font-family="system-ui, sans-serif" font-size="16" fill="#e0e0e0">Poisson Disk Sampling</text>
<circle cx="30.002246300005044" cy="143.21372505841782" r="3" fill="#00d4ff" stroke="none" stroke-width="0"/>
<circle cx="43.28080054547189" cy="156.2384709380034" r="3" fill="#00d4ff" stroke="none" stroke-width="0"/>
<circle cx="61.790742560258536" cy="171.48576446098124" r="3" fill="#00d4ff" stroke="none" stroke-width="0"/>
<circle cx="53.61268060456149" cy="188.27412947709058" r="3" fill="#00d4ff" stroke="none" stroke-width="0"/>
<circle cx="77.63840129273254" cy="179.43959490489095" r="3" fill="#00d4ff" stroke="none" stroke-width="0"/>
<circle cx="54.54777615549191" cy="127.90071042650136" r="3" fill="#00d4ff" stroke="none" stroke-width="0"/>
<circle cx="81.09917282457002" cy="160.2597130253322" r="3" fill="#00d4ff" stroke="none" stroke-width="0"/>
<circle cx="102.20356052224398" cy="199.93428871975237" r="3" fill="#00d4ff" stroke="none" stroke-width="0"/>
<circle cx="63.61625445575325" cy="146.0549165741686" r="3" fill="#00d4ff" stroke="none" stroke-width="0"/>
<circle cx="98.71428570209672" cy="164.11679180046977" r="3" fill="#00d4ff" stroke="none" stroke-width="0"/>
<circle cx="94.30711816491979" cy="145.835312913789" r="3" fill="#00d4ff" stroke="none" stroke-width="0"/>
<circle cx="132.45590776446699" cy="161.17689418608643" r="3" fill="#00d4ff" stroke="none" stroke-width="0"/>
<circle cx="79.44807632642849" cy="125.2034604361829" r="3" fill="#00d4ff" stroke="none" stroke-width="0"/>
<circle cx="117.96201360621468" cy="177.31590588826077" r="3" fill="#00d4ff" stroke="none" stroke-width="0"/>
<circle cx="131.25359045137122" cy="130.344231845055" r="3" fill="#00d4ff" stroke="none" stroke-width="0"/>
<circle cx="59.197416405294845" cy="102.77068860867116" r="3" fill="#00d4ff" stroke="none" stroke-width="0"/>
<circle cx="70.29469873640869" cy="206.53019267738364" r="3" fill="#00d4ff" stroke="none" stroke-width="0"/>
<circle cx="85.29405938177922" cy="227.0672275452805" r="3" fill="#00d4ff" stroke="none" stroke-width="0"/>
<circle cx="116.22767927160231" cy="104.22880632000614" r="3" fill="#00d4ff" stroke="none" stroke-width="0"/>
<circle cx="35.86749655515303" cy="100.00636126043928" r="3" fill="#00d4ff" stroke="none" stroke-width="0"/>
<circle cx="31.03294169350766" cy="170.62945341217994" r="3" fill="#00d4ff" stroke="none" stroke-width="0"/>
<circle cx="133.76770635437146" cy="187.36043421483862" r="3" fill="#00d4ff" stroke="none" stroke-width="0"/>
<circle cx="111.20683295546814" cy="136.89936388646055" r="3" fill="#00d4ff" stroke="none" stroke-width="0"/>
<circle cx="87.91957318313597" cy="108.32377545593468" r="3" fill="#00d4ff" stroke="none" stroke-width="0"/>
<circle cx="138.71421305136352" cy="103.12172370927787" r="3" fill="#00d4ff" stroke="none" stroke-width="0"/>
<circle cx="119.2061779720899" cy="212.4040261974958" r="3" fill="#00d4ff" stroke="none" stroke-width="0"/>
<circle cx="53.73705541337469" cy="72.68565220904495" r="3" fill="#00d4ff" stroke="none" stroke-width="0"/>
<circle cx="110.77891219816934" cy="230.11752791674655" r="3" fill="#00d4ff" stroke="none" stroke-width="0"/>
<circle cx="38.12674887904686" cy="197.00628951476645" r="3" fill="#00d4ff" stroke="none" stroke-width="0"/>
<circle cx="36.54092414213279" cy="121.73474596558316" r="3" fill="#00d4ff" stroke="none" stroke-width="0"/>
<circle cx="41.239864105740594" cy="231.43848951956548" r="3" fill="#00d4ff" stroke="none" stroke-width="0"/>
<circle cx="149.52451677388825" cy="153.45455298211894" r="3" fill="#00d4ff" stroke="none" stroke-width="0"/>
<circle cx="52.36448628592185" cy="208.53902177934364" r="3" fill="#00d4ff" stroke="none" stroke-width="0"/>
<circle cx="102.43458577192244" cy="92.54764623965335" r="3" fill="#00d4ff" stroke="none" stroke-width="0"/>
<circle cx="83.90366237000529" cy="254.82179184490448" r="3" fill="#00d4ff" stroke="none" stroke-width="0"/>
<circle cx="32.65435524846135" cy="216.16686563355432" r="3" fill="#00d4ff" stroke="none" stroke-width="0"/>
<circle cx="72.1506964943406" cy="82.42376786357602" r="3" fill="#00d4ff" stroke="none" stroke-width="0"/>
<circle cx="89.85506653277437" cy="63.08318744941414" r="3" fill="#00d4ff" stroke="none" stroke-width="0"/>
<circle cx="124.15899919150075" cy="254.8327506080416" r="3" fill="#00d4ff" stroke="none" stroke-width="0"/>
<circle cx="148.9286513163243" cy="197.63495882959103" r="3" fill="#00d4ff" stroke="none" stroke-width="0"/>
<circle cx="57.99695463372624" cy="237.5845057429989" r="3" fill="#00d4ff" stroke="none" stroke-width="0"/>
<circle cx="46.01780666083003" cy="262.70037455778834" r="3" fill="#00d4ff" stroke="none" stroke-width="0"/>
<circle cx="145.61612425329724" cy="85.12458020899555" r="3" fill="#00d4ff" stroke="none" stroke-width="0"/>
<circle cx="145.05418829619427" cy="219.09166221502306" r="3" fill="#00d4ff" stroke="none" stroke-width="0"/>
<circle cx="64.85326110717509" cy="58.580069285179206" r="3" fill="#00d4ff" stroke="none" stroke-width="0"/>
<circle cx="146.25300174778877" cy="174.91083065271414" r="3" fill="#00d4ff" stroke="none" stroke-width="0"/>
<circle cx="172.15182449831474" cy="165.79746945089113" r="3" fill="#00d4ff" stroke="none" stroke-width="0"/>
<circle cx="180.5266777742908" cy="193.245427610447" r="3" fill="#00d4ff" stroke="none" stroke-width="0"/>
<circle cx="30.46936098444374" cy="76.10655316552689" r="3" fill="#00d4ff" stroke="none" stroke-width="0"/>
<circle cx="106.04645890674716" cy="252.13840684843575" r="3" fill="#00d4ff" stroke="none" stroke-width="0"/>
<circle cx="113.1738118332009" cy="281.8180118256966" r="3" fill="#00d4ff" stroke="none" stroke-width="0"/>
<circle cx="132.31965696970747" cy="308.1106583711051" r="3" fill="#00d4ff" stroke="none" stroke-width="0"/>
<circle cx="111.95962777691943" cy="45.181066541289766" r="3" fill="#00d4ff" stroke="none" stroke-width="0"/>
<circle cx="72.52446750079196" cy="268.25371124699484" r="3" fill="#00d4ff" stroke="none" stroke-width="0"/>
<circle cx="169.1876669806754" cy="108.13543155803366" r="3" fill="#00d4ff" stroke="none" stroke-width="0"/>
<circle cx="185.70894685452814" cy="128.39893263350643" r="3" fill="#00d4ff" stroke="none" stroke-width="0"/>
<circle cx="129.01414174376495" cy="75.29499088080149" r="3" fill="#00d4ff" stroke="none" stroke-width="0"/>
<circle cx="163.45512540563186" cy="82.95995343926633" r="3" fill="#00d4ff" stroke="none" stroke-width="0"/>
<circle cx="153.46157100542462" cy="118.15432467971499" r="3" fill="#00d4ff" stroke="none" stroke-width="0"/>
<circle cx="110.28620491683321" cy="333.6341523917532" r="3" fill="#00d4ff" stroke="none" stroke-width="0"/>
<circle cx="172.1422581564166" cy="224.11534424964898" r="3" fill="#00d4ff" stroke="none" stroke-width="0"/>
<circle cx="186.05595185285222" cy="87.04167322953944" r="3" fill="#00d4ff" stroke="none" stroke-width="0"/>
<circle cx="133.72975376019167" cy="49.905496551618015" r="3" fill="#00d4ff" stroke="none" stroke-width="0"/>
<circle cx="199.94496346096903" cy="196.09488587087304" r="3" fill="#00d4ff" stroke="none" stroke-width="0"/>
<circle cx="136.55298663613448" cy="235.2584301742905" r="3" fill="#00d4ff" stroke="none" stroke-width="0"/>
<circle cx="56.448728398179256" cy="42.29738182334538" r="3" fill="#00d4ff" stroke="none" stroke-width="0"/>
<circle cx="164.16688496300338" cy="134.92851865402466" r="3" fill="#00d4ff" stroke="none" stroke-width="0"/>
<circle cx="202.27790727770062" cy="165.87699191018288" r="3" fill="#00d4ff" stroke="none" stroke-width="0"/>
<circle cx="111.09976297790928" cy="69.62915826376161" r="3" fill="#00d4ff" stroke="none" stroke-width="0"/>
<circle cx="195.3526393477721" cy="148.85253048497535" r="3" fill="#00d4ff" stroke="none" stroke-width="0"/>
<circle cx="185.28912201882687" cy="55.74244379950798" r="3" fill="#00d4ff" stroke="none" stroke-width="0"/>
<circle cx="155.6624159741961" cy="49.635249931677556" r="3" fill="#00d4ff" stroke="none" stroke-width="0"/>
<circle cx="94.01677152816869" cy="46.04902481793988" r="3" fill="#00d4ff" stroke="none" stroke-width="0"/>
<circle cx="159.20792153015574" cy="242.56619239934764" r="3" fill="#00d4ff" stroke="none" stroke-width="0"/>
<circle cx="32.41165819107762" cy="51.7651862368263" r="3" fill="#00d4ff" stroke="none" stroke-width="0"/>
<circle cx="150.1969797735403" cy="333.63964157951233" r="3" fill="#00d4ff" stroke="none" stroke-width="0"/>
<circle cx="70.56873710055336" cy="287.1662957203632" r="3" fill="#00d4ff" stroke="none" stroke-width="0"/>
<circle cx="147.47612485684937" cy="67.3276517895567" r="3" fill="#00d4ff" stroke="none" stroke-width="0"/>
<circle cx="167.344830557902" cy="206.97172880802356" r="3" fill="#00d4ff" stroke="none" stroke-width="0"/>
<circle cx="205.05001340799294" cy="77.54746655705577" r="3" fill="#00d4ff" stroke="none" stroke-width="0"/>
<circle cx="193.48261691396684" cy="105.01478902021631" r="3" fill="#00d4ff" stroke="none" stroke-width="0"/>
<circle cx="49.51564661369309" cy="309.5946309870943" r="3" fill="#00d4ff" stroke="none" stroke-width="0"/>
<circle cx="76.36014543639783" cy="43.81587888852921" r="3" fill="#00d4ff" stroke="none" stroke-width="0"/>
<circle cx="221.98155732731868" cy="178.10588629350423" r="3" fill="#00d4ff" stroke="none" stroke-width="0"/>
<circle cx="165.07363027154076" cy="184.50174771530408" r="3" fill="#00d4ff" stroke="none" stroke-width="0"/>
<circle cx="171.94200283514323" cy="258.05737268297764" r="3" fill="#00d4ff" stroke="none" stroke-width="0"/>
<circle cx="205.32867808631806" cy="40.94473594771459" r="3" fill="#00d4ff" stroke="none" stroke-width="0"/>
<circle cx="226.16375374001646" cy="153.1566356606727" r="3" fill="#00d4ff" stroke="none" stroke-width="0"/>
<circle cx="45.219246442169336" cy="281.3333397018107" r="3" fill="#00d4ff" stroke="none" stroke-width="0"/>
<circle cx="245.22752681348646" cy="165.56512033555134" r="3" fill="#00d4ff" stroke="none" stroke-width="0"/>
<circle cx="219.61438344695432" cy="52.937553758154635" r="3" fill="#00d4ff" stroke="none" stroke-width="0"/>
<circle cx="127.18209971863774" cy="345.77915968913095" r="3" fill="#00d4ff" stroke="none" stroke-width="0"/>
<circle cx="241.17440669722075" cy="70.09409609317268" r="3" fill="#00d4ff" stroke="none" stroke-width="0"/>
<circle cx="223.16493752946903" cy="72.03524361345347" r="3" fill="#00d4ff" stroke="none" stroke-width="0"/>
<circle cx="246.29596478124665" cy="190.74724005489165" r="3" fill="#00d4ff" stroke="none" stroke-width="0"/>
<circle cx="156.9196554998134" cy="363.9912980068992" r="3" fill="#00d4ff" stroke="none" stroke-width="0"/>
<circle cx="213.4711249396789" cy="119.56948588393325" r="3" fill="#00d4ff" stroke="none" stroke-width="0"/>
<circle cx="76.94347035174903" cy="312.54522214463185" r="3" fill="#00d4ff" stroke="none" stroke-width="0"/>
<circle cx="271.7956952564334" cy="79.97398523302935" r="3" fill="#00d4ff" stroke="none" stroke-width="0"/>
<circle cx="88.80624713707448" cy="280.67675838067044" r="3" fill="#00d4ff" stroke="none" stroke-width="0"/>
<circle cx="151.1096511453456" cy="315.523188184552" r="3" fill="#00d4ff" stroke="none" stroke-width="0"/>
<circle cx="210.2003492192038" cy="138.17700584359125" r="3" fill="#00d4ff" stroke="none" stroke-width="0"/>
<circle cx="172.9426450393758" cy="381.2054932014004" r="3" fill="#00d4ff" stroke="none" stroke-width="0"/>
<circle cx="199.5168135694647" cy="232.61842809672217" r="3" fill="#00d4ff" stroke="none" stroke-width="0"/>
<circle cx="56.5028385583768" cy="326.2858765061447" r="3" fill="#00d4ff" stroke="none" stroke-width="0"/>
<circle cx="132.43372685760107" cy="270.3728071748043" r="3" fill="#00d4ff" stroke="none" stroke-width="0"/>
<circle cx="227.60574194326904" cy="130.38174915913743" r="3" fill="#00d4ff" stroke="none" stroke-width="0"/>
<circle cx="206.26162462695288" cy="253.33789433662207" r="3" fill="#00d4ff" stroke="none" stroke-width="0"/>
<circle cx="181.38149123418782" cy="242.88872107992097" r="3" fill="#00d4ff" stroke="none" stroke-width="0"/>
<circle cx="224.6505521829277" cy="91.99394511896892" r="3" fill="#00d4ff" stroke="none" stroke-width="0"/>
<circle cx="169.43355199978242" cy="66.15536502544543" r="3" fill="#00d4ff" stroke="none" stroke-width="0"/>
<circle cx="247.5198378471341" cy="125.70319704318953" r="3" fill="#00d4ff" stroke="none" stroke-width="0"/>
<circle cx="114.58503253368931" cy="314.2554866825145" r="3" fill="#00d4ff" stroke="none" stroke-width="0"/>
<circle cx="139.43357683599805" cy="360.99609154514945" r="3" fill="#00d4ff" stroke="none" stroke-width="0"/>
<circle cx="186.3872384112207" cy="210.04487230253912" r="3" fill="#00d4ff" stroke="none" stroke-width="0"/>
<circle cx="64.62361229585332" cy="345.0125627932142" r="3" fill="#00d4ff" stroke="none" stroke-width="0"/>
<circle cx="242.342332059611" cy="46.19694669756186" r="3" fill="#00d4ff" stroke="none" stroke-width="0"/>
<circle cx="240.70725649216894" cy="100.26179610916469" r="3" fill="#00d4ff" stroke="none" stroke-width="0"/>
<circle cx="252.48395603339608" cy="147.75989310284922" r="3" fill="#00d4ff" stroke="none" stroke-width="0"/>
<circle cx="33.51817240239239" cy="297.6780762829277" r="3" fill="#00d4ff" stroke="none" stroke-width="0"/>
<circle cx="153.48311580988536" cy="273.81648186148567" r="3" fill="#00d4ff" stroke="none" stroke-width="0"/>
<circle cx="32.65729547494581" cy="248.00732667102804" r="3" fill="#00d4ff" stroke="none" stroke-width="0"/>
<circle cx="101.65654085138861" cy="298.8112526880031" r="3" fill="#00d4ff" stroke="none" stroke-width="0"/>
<circle cx="256.52559297255215" cy="89.42306983094376" r="3" fill="#00d4ff" stroke="none" stroke-width="0"/>
<circle cx="92.8453441850144" cy="348.62917468787293" r="3" fill="#00d4ff" stroke="none" stroke-width="0"/>
<circle cx="269.20839324626775" cy="110.6341115380583" r="3" fill="#00d4ff" stroke="none" stroke-width="0"/>
<circle cx="254.86309909205755" cy="222.0014921869336" r="3" fill="#00d4ff" stroke="none" stroke-width="0"/>
<circle cx="152.60019902643492" cy="386.40548983211823" r="3" fill="#00d4ff" stroke="none" stroke-width="0"/>
<circle cx="186.6533130467651" cy="276.57089059216173" r="3" fill="#00d4ff" stroke="none" stroke-width="0"/>
<circle cx="288.15373870487167" cy="95.35166153192095" r="3" fill="#00d4ff" stroke="none" stroke-width="0"/>
<circle cx="205.62949407246978" cy="380.8722182629326" r="3" fill="#00d4ff" stroke="none" stroke-width="0"/>
<circle cx="284.49058441964604" cy="134.10415800655318" r="3" fill="#00d4ff" stroke="none" stroke-width="0"/>
<circle cx="265.7182343183381" cy="169.58359866236486" r="3" fill="#00d4ff" stroke="none" stroke-width="0"/>
<circle cx="116.52063460427505" cy="366.7751569199189" r="3" fill="#00d4ff" stroke="none" stroke-width="0"/>
<circle cx="166.29762477596125" cy="303.05091754382875" r="3" fill="#00d4ff" stroke="none" stroke-width="0"/>
<circle cx="31.71085750063359" cy="329.5296744958796" r="3" fill="#00d4ff" stroke="none" stroke-width="0"/>
<circle cx="81.0865611240772" cy="334.28186636010514" r="3" fill="#00d4ff" stroke="none" stroke-width="0"/>
<circle cx="306.849018928701" cy="70.89884431239146" r="3" fill="#00d4ff" stroke="none" stroke-width="0"/>
<circle cx="96.61363166388605" cy="319.22727704300405" r="3" fill="#00d4ff" stroke="none" stroke-width="0"/>
<circle cx="215.4607031294503" cy="211.41927094291773" r="3" fill="#00d4ff" stroke="none" stroke-width="0"/>
<circle cx="298.04161470464754" cy="111.73432388204255" r="3" fill="#00d4ff" stroke="none" stroke-width="0"/>
<circle cx="333.1260863469289" cy="72.84081921931552" r="3" fill="#00d4ff" stroke="none" stroke-width="0"/>
<circle cx="43.14620896606225" cy="349.6882703814696" r="3" fill="#00d4ff" stroke="none" stroke-width="0"/>
<circle cx="187.12153101023597" cy="307.6368115062666" r="3" fill="#00d4ff" stroke="none" stroke-width="0"/>
<circle cx="280.38599978267393" cy="154.6570472660217" r="3" fill="#00d4ff" stroke="none" stroke-width="0"/>
<circle cx="308.8447615716443" cy="91.12329749326166" r="3" fill="#00d4ff" stroke="none" stroke-width="0"/>
<circle cx="174.71128610309802" cy="335.58198189839743" r="3" fill="#00d4ff" stroke="none" stroke-width="0"/>
<circle cx="195.3600328021127" cy="347.4055964697121" r="3" fill="#00d4ff" stroke="none" stroke-width="0"/>
<circle cx="264.1927537204543" cy="58.597414002629634" r="3" fill="#00d4ff" stroke="none" stroke-width="0"/>
<circle cx="285.8303785964447" cy="51.49570637934196" r="3" fill="#00d4ff" stroke="none" stroke-width="0"/>
<circle cx="338.4838217254341" cy="90.96926975184344" r="3" fill="#00d4ff" stroke="none" stroke-width="0"/>
<circle cx="132.79748983355444" cy="382.1963877814524" r="3" fill="#00d4ff" stroke="none" stroke-width="0"/>
<circle cx="271.55666880426713" cy="188.52531603176033" r="3" fill="#00d4ff" stroke="none" stroke-width="0"/>
<circle cx="218.95570081082022" cy="229.45718273409662" r="3" fill="#00d4ff" stroke="none" stroke-width="0"/>
<circle cx="216.03594807757116" cy="327.97843243297314" r="3" fill="#00d4ff" stroke="none" stroke-width="0"/>
<circle cx="139.66738911326004" cy="289.2235892099336" r="3" fill="#00d4ff" stroke="none" stroke-width="0"/>
<circle cx="142.87411208706146" cy="252.3091529240925" r="3" fill="#00d4ff" stroke="none" stroke-width="0"/>
<circle cx="266.8043963420753" cy="136.60691653643923" r="3" fill="#00d4ff" stroke="none" stroke-width="0"/>
<circle cx="213.722269862517" cy="354.38313771648063" r="3" fill="#00d4ff" stroke="none" stroke-width="0"/>
<circle cx="295.34112871940283" cy="167.32417716447733" r="3" fill="#00d4ff" stroke="none" stroke-width="0"/>
<circle cx="167.34321630335984" cy="284.6448811260833" r="3" fill="#00d4ff" stroke="none" stroke-width="0"/>
<circle cx="236.4633462441305" cy="225.3457838518151" r="3" fill="#00d4ff" stroke="none" stroke-width="0"/>
<circle cx="321.79429229119455" cy="111.09859512275308" r="3" fill="#00d4ff" stroke="none" stroke-width="0"/>
<circle cx="312.2163304787126" cy="148.31849003576315" r="3" fill="#00d4ff" stroke="none" stroke-width="0"/>
<circle cx="174.2140571629328" cy="356.85190685064094" r="3" fill="#00d4ff" stroke="none" stroke-width="0"/>
<circle cx="239.93050868225848" cy="248.7721147475024" r="3" fill="#00d4ff" stroke="none" stroke-width="0"/>
<circle cx="309.89000397055673" cy="130.77171144663345" r="3" fill="#00d4ff" stroke="none" stroke-width="0"/>
<circle cx="299.1882411002986" cy="192.82455038642925" r="3" fill="#00d4ff" stroke="none" stroke-width="0"/>
<circle cx="322.56393820067154" cy="182.46629348204138" r="3" fill="#00d4ff" stroke="none" stroke-width="0"/>
<circle cx="191.8629319301888" cy="366.5622360683173" r="3" fill="#00d4ff" stroke="none" stroke-width="0"/>
<circle cx="133.29967379358447" cy="326.6428329286699" r="3" fill="#00d4ff" stroke="none" stroke-width="0"/>
<circle cx="230.9173662749654" cy="203.21123776492993" r="3" fill="#00d4ff" stroke="none" stroke-width="0"/>
<circle cx="259.93277936607535" cy="251.38258093304006" r="3" fill="#00d4ff" stroke="none" stroke-width="0"/>
<circle cx="359.30814014948214" cy="68.44510887170617" r="3" fill="#00d4ff" stroke="none" stroke-width="0"/>
<circle cx="268.31215210704715" cy="234.81933516492325" r="3" fill="#00d4ff" stroke="none" stroke-width="0"/>
<circle cx="248.01092904834377" cy="271.0154481000754" r="3" fill="#00d4ff" stroke="none" stroke-width="0"/>
<circle cx="97.11605170588336" cy="387.5130248680405" r="3" fill="#00d4ff" stroke="none" stroke-width="0"/>
<circle cx="306.18296322143436" cy="213.15944243965532" r="3" fill="#00d4ff" stroke="none" stroke-width="0"/>
<circle cx="265.36982987791896" cy="207.2263252761824" r="3" fill="#00d4ff" stroke="none" stroke-width="0"/>
<circle cx="205.65276696293543" cy="275.35246767995113" r="3" fill="#00d4ff" stroke="none" stroke-width="0"/>
<circle cx="235.83939908169327" cy="355.25319944464053" r="3" fill="#00d4ff" stroke="none" stroke-width="0"/>
<circle cx="332.35945611040205" cy="217.22091726748943" r="3" fill="#00d4ff" stroke="none" stroke-width="0"/>
<circle cx="69.86734690084697" cy="362.5047866219657" r="3" fill="#00d4ff" stroke="none" stroke-width="0"/>
<circle cx="307.75941395389424" cy="46.856796065445074" r="3" fill="#00d4ff" stroke="none" stroke-width="0"/>
<circle cx="194.17867697830525" cy="325.54887259614213" r="3" fill="#00d4ff" stroke="none" stroke-width="0"/>
<circle cx="202.81997779923404" cy="59.18620188639417" r="3" fill="#00d4ff" stroke="none" stroke-width="0"/>
<circle cx="270.5881453310633" cy="265.6515864412189" r="3" fill="#00d4ff" stroke="none" stroke-width="0"/>
<circle cx="225.1658274671379" cy="259.2268107980359" r="3" fill="#00d4ff" stroke="none" stroke-width="0"/>
<circle cx="313.7036299480434" cy="167.21792351677155" r="3" fill="#00d4ff" stroke="none" stroke-width="0"/>
<circle cx="75.485998504948" cy="379.7801250546028" r="3" fill="#00d4ff" stroke="none" stroke-width="0"/>
<circle cx="50.01280133097545" cy="374.0808193995876" r="3" fill="#00d4ff" stroke="none" stroke-width="0"/>
<circle cx="333.1416053100794" cy="150.58530570220663" r="3" fill="#00d4ff" stroke="none" stroke-width="0"/>
<circle cx="351.0536457449711" cy="153.8430096212241" r="3" fill="#00d4ff" stroke="none" stroke-width="0"/>
<circle cx="208.35585617208915" cy="301.37988619005347" r="3" fill="#00d4ff" stroke="none" stroke-width="0"/>
<circle cx="356.30414523546074" cy="111.43612195532506" r="3" fill="#00d4ff" stroke="none" stroke-width="0"/>
<circle cx="325.49010669621737" cy="51.44008546062933" r="3" fill="#00d4ff" stroke="none" stroke-width="0"/>
<circle cx="371.7035224197894" cy="172.33759561911498" r="3" fill="#00d4ff" stroke="none" stroke-width="0"/>
<circle cx="33.776486607422996" cy="381.16150758458747" r="3" fill="#00d4ff" stroke="none" stroke-width="0"/>
<circle cx="289.1882029857346" cy="72.56608951190016" r="3" fill="#00d4ff" stroke="none" stroke-width="0"/>
<circle cx="352.10286746080595" cy="173.2917853057781" r="3" fill="#00d4ff" stroke="none" stroke-width="0"/>
<circle cx="97.78335011518402" cy="365.5154744118659" r="3" fill="#00d4ff" stroke="none" stroke-width="0"/>
<circle cx="250.6548209092449" cy="374.2535247531149" r="3" fill="#00d4ff" stroke="none" stroke-width="0"/>
<circle cx="271.75260407233617" cy="40.687479908207806" r="3" fill="#00d4ff" stroke="none" stroke-width="0"/>
<circle cx="285.17730154844855" cy="205.7634834889421" r="3" fill="#00d4ff" stroke="none" stroke-width="0"/>
<circle cx="292.8221308640167" cy="229.7849680643298" r="3" fill="#00d4ff" stroke="none" stroke-width="0"/>
<circle cx="359.88401784687795" cy="89.73007297768962" r="3" fill="#00d4ff" stroke="none" stroke-width="0"/>
<circle cx="291.1619258922659" cy="251.0046916581548" r="3" fill="#00d4ff" stroke="none" stroke-width="0"/>
<circle cx="322.1179610518606" cy="236.28752202888455" r="3" fill="#00d4ff" stroke="none" stroke-width="0"/>
<circle cx="227.3763696631526" cy="295.8103261508818" r="3" fill="#00d4ff" stroke="none" stroke-width="0"/>
<circle cx="297.15557332544165" cy="274.32448373959187" r="3" fill="#00d4ff" stroke="none" stroke-width="0"/>
<circle cx="364.59036087738076" cy="132.91464266691105" r="3" fill="#00d4ff" stroke="none" stroke-width="0"/>
<circle cx="331.38511327372976" cy="133.00401299009923" r="3" fill="#00d4ff" stroke="none" stroke-width="0"/>
<circle cx="375.3674331869153" cy="198.4682503657299" r="3" fill="#00d4ff" stroke="none" stroke-width="0"/>
<circle cx="226.53370559749558" cy="373.9138382677918" r="3" fill="#00d4ff" stroke="none" stroke-width="0"/>
<circle cx="377.61332998152847" cy="85.6658840649617" r="3" fill="#00d4ff" stroke="none" stroke-width="0"/>
<circle cx="346.87447552643124" cy="42.7190747166447" r="3" fill="#00d4ff" stroke="none" stroke-width="0"/>
<circle cx="256.49777644840185" cy="356.67917819809963" r="3" fill="#00d4ff" stroke="none" stroke-width="0"/>
<circle cx="315.1951508459337" cy="273.5757009834435" r="3" fill="#00d4ff" stroke="none" stroke-width="0"/>
<circle cx="354.25232809780744" cy="197.12146635903852" r="3" fill="#00d4ff" stroke="none" stroke-width="0"/>
<circle cx="256.9523917534643" cy="290.7643207283311" r="3" fill="#00d4ff" stroke="none" stroke-width="0"/>
<circle cx="276.215965575753" cy="337.2807443322356" r="3" fill="#00d4ff" stroke="none" stroke-width="0"/>
<circle cx="115.08493881746419" cy="386.6775999846004" r="3" fill="#00d4ff" stroke="none" stroke-width="0"/>
<circle cx="246.65932946533397" cy="336.47521900544336" r="3" fill="#00d4ff" stroke="none" stroke-width="0"/>
<circle cx="235.36445375696906" cy="319.83923380516677" r="3" fill="#00d4ff" stroke="none" stroke-width="0"/>
<circle cx="252.20169939153615" cy="311.77086853584825" r="3" fill="#00d4ff" stroke="none" stroke-width="0"/>
<circle cx="372.8233295173951" cy="103.53959132309882" r="3" fill="#00d4ff" stroke="none" stroke-width="0"/>
<circle cx="375.5757785559794" cy="54.80178218987825" r="3" fill="#00d4ff" stroke="none" stroke-width="0"/>
<circle cx="288.43061006445635" cy="296.77622371400037" r="3" fill="#00d4ff" stroke="none" stroke-width="0"/>
<circle cx="373.6029950907865" cy="150.87558045227132" r="3" fill="#00d4ff" stroke="none" stroke-width="0"/>
<circle cx="274.73391220293666" cy="308.67453373357347" r="3" fill="#00d4ff" stroke="none" stroke-width="0"/>
<circle cx="292.81272631664854" cy="322.6136618702777" r="3" fill="#00d4ff" stroke="none" stroke-width="0"/>
<circle cx="239.20545581361532" cy="389.4601922351922" r="3" fill="#00d4ff" stroke="none" stroke-width="0"/>
<circle cx="341.27804287378956" cy="243.0447328351744" r="3" fill="#00d4ff" stroke="none" stroke-width="0"/>
<circle cx="285.98930326745074" cy="358.51656542948007" r="3" fill="#00d4ff" stroke="none" stroke-width="0"/>
<circle cx="306.00895280816303" cy="309.7633723118816" r="3" fill="#00d4ff" stroke="none" stroke-width="0"/>
<circle cx="320.81810252976385" cy="295.2765956701389" r="3" fill="#00d4ff" stroke="none" stroke-width="0"/>
<circle cx="312.9113198347962" cy="331.80692194692176" r="3" fill="#00d4ff" stroke="none" stroke-width="0"/>
<circle cx="186.92710416079518" cy="175.39267279955277" r="3" fill="#00d4ff" stroke="none" stroke-width="0"/>
<circle cx="296.14220335947573" cy="343.5816608540328" r="3" fill="#00d4ff" stroke="none" stroke-width="0"/>
<circle cx="324.543019973964" cy="256.8530108211196" r="3" fill="#00d4ff" stroke="none" stroke-width="0"/>
<circle cx="334.2333251424989" cy="273.0046036904912" r="3" fill="#00d4ff" stroke="none" stroke-width="0"/>
<circle cx="269.6463539124387" cy="376.6827394801911" r="3" fill="#00d4ff" stroke="none" stroke-width="0"/>
<circle cx="358.06599206611094" cy="224.2632869619736" r="3" fill="#00d4ff" stroke="none" stroke-width="0"/>
<circle cx="352.59191097745077" cy="257.3691502267455" r="3" fill="#00d4ff" stroke="none" stroke-width="0"/>
<circle cx="318.12007217162136" cy="357.6568666983041" r="3" fill="#00d4ff" stroke="none" stroke-width="0"/>
<circle cx="301.6621901134275" cy="375.4903499166855" r="3" fill="#00d4ff" stroke="none" stroke-width="0"/>
<circle cx="353.9639272856731" cy="302.6213219386604" r="3" fill="#00d4ff" stroke="none" stroke-width="0"/>
<circle cx="328.16467323590894" cy="341.3220825859938" r="3" fill="#00d4ff" stroke="none" stroke-width="0"/>
<circle cx="371.82224567080937" cy="260.8653584314437" r="3" fill="#00d4ff" stroke="none" stroke-width="0"/>
<circle cx="353.1888673717873" cy="277.14199606152886" r="3" fill="#00d4ff" stroke="none" stroke-width="0"/>
<circle cx="370.58109258948605" cy="291.68290472992226" r="3" fill="#00d4ff" stroke="none" stroke-width="0"/>
<circle cx="323.93082153782694" cy="375.52339497282674" r="3" fill="#00d4ff" stroke="none" stroke-width="0"/>
<circle cx="368.896919043155" cy="330.60185934168544" r="3" fill="#00d4ff" stroke="none" stroke-width="0"/>
<circle cx="378.80671784449106" cy="244.23542223379562" r="3" fill="#00d4ff" stroke="none" stroke-width="0"/>
<circle cx="338.67886343167993" cy="316.5262751059345" r="3" fill="#00d4ff" stroke="none" stroke-width="0"/>
<circle cx="369.67440434659665" cy="351.6475855399434" r="3" fill="#00d4ff" stroke="none" stroke-width="0"/>
<circle cx="358.5800574047048" cy="371.52337257315446" r="3" fill="#00d4ff" stroke="none" stroke-width="0"/>
<circle cx="376.4944039203005" cy="308.8569152440348" r="3" fill="#00d4ff" stroke="none" stroke-width="0"/>
<circle cx="338.1582837033638" cy="356.12572373569367" r="3" fill="#00d4ff" stroke="none" stroke-width="0"/>
<circle cx="346.5593551696162" cy="338.07772293590693" r="3" fill="#00d4ff" stroke="none" stroke-width="0"/>
<circle cx="342.39165735142456" cy="382.83692755215" r="3" fill="#00d4ff" stroke="none" stroke-width="0"/>
<circle cx="378.0003276342327" cy="367.20598500386944" r="3" fill="#00d4ff" stroke="none" stroke-width="0"/>
<circle cx="371.2035800884476" cy="383.8881337540398" r="3" fill="#00d4ff" stroke="none" stroke-width="0"/>
<circle cx="430.00223882691665" cy="99.49224222332188" r="4" fill="#6bcb77" stroke="none" stroke-width="0"/>
<circle cx="434.71341272835633" cy="149.11609558971287" r="4" fill="#6bcb77" stroke="none" stroke-width="0"/>
<circle cx="440.7926584974515" cy="199.7320807318025" r="4" fill="#6bcb77" stroke="none" stroke-width="0"/>
<circle cx="467.7936927642379" cy="168.52118252638545" r="4" fill="#6bcb77" stroke="none" stroke-width="0"/>
<circle cx="463.8274003118528" cy="111.6444083891864" r="4" fill="#6bcb77" stroke="none" stroke-width="0"/>
<circle cx="486.4477748059484" cy="234.74055117621816" r="4" fill="#6bcb77" stroke="none" stroke-width="0"/>
<circle cx="480.0488925315759" cy="72.97597879170792" r="4" fill="#6bcb77" stroke="none" stroke-width="0"/>
<circle cx="499.4891306173731" cy="105.31915268943561" r="4" fill="#6bcb77" stroke="none" stroke-width="0"/>
<circle cx="436.43413092393075" cy="252.9921373078393" r="4" fill="#6bcb77" stroke="none" stroke-width="0"/>
<circle cx="525.4252441835396" cy="226.19818953398968" r="4" fill="#6bcb77" stroke="none" stroke-width="0"/>
<circle cx="454.2950883326742" cy="289.1814185518251" r="4" fill="#6bcb77" stroke="none" stroke-width="0"/>
<circle cx="563.189574507155" cy="177.58392663214613" r="4" fill="#6bcb77" stroke="none" stroke-width="0"/>
<circle cx="559.8279035947015" cy="246.24396767918657" r="4" fill="#6bcb77" stroke="none" stroke-width="0"/>
<circle cx="445.13592072282006" cy="56.82199592039855" r="4" fill="#6bcb77" stroke="none" stroke-width="0"/>
<circle cx="499.07845603525345" cy="192.08246919759557" r="4" fill="#6bcb77" stroke="none" stroke-width="0"/>
<circle cx="610.6363763994362" cy="254.09950955429701" r="4" fill="#6bcb77" stroke="none" stroke-width="0"/>
<circle cx="495.5212162240634" cy="316.601023622039" r="4" fill="#6bcb77" stroke="none" stroke-width="0"/>
<circle cx="542.7391881249619" cy="51.817409940861296" r="4" fill="#6bcb77" stroke="none" stroke-width="0"/>
<circle cx="540.5894261148069" cy="144.7217171617215" r="4" fill="#6bcb77" stroke="none" stroke-width="0"/>
<circle cx="522.6670334231757" cy="274.3203719028885" r="4" fill="#6bcb77" stroke="none" stroke-width="0"/>
<circle cx="565.9602256813117" cy="285.84157537284995" r="4" fill="#6bcb77" stroke="none" stroke-width="0"/>
<circle cx="600.7132771522371" cy="201.55880132549584" r="4" fill="#6bcb77" stroke="none" stroke-width="0"/>
<circle cx="611.8808201896633" cy="167.34224104126577" r="4" fill="#6bcb77" stroke="none" stroke-width="0"/>
<circle cx="600.4820207837649" cy="299.841032355304" r="4" fill="#6bcb77" stroke="none" stroke-width="0"/>
<circle cx="536.7805271400451" cy="90.01306440973097" r="4" fill="#6bcb77" stroke="none" stroke-width="0"/>
<circle cx="592.1310185336715" cy="136.74073845213175" r="4" fill="#6bcb77" stroke="none" stroke-width="0"/>
<circle cx="523.2205098833582" cy="340.82585770921884" r="4" fill="#6bcb77" stroke="none" stroke-width="0"/>
<circle cx="632.2342294605345" cy="83.22076932098497" r="4" fill="#6bcb77" stroke="none" stroke-width="0"/>
<circle cx="606.1076894644893" cy="59.88564706927289" r="4" fill="#6bcb77" stroke="none" stroke-width="0"/>
<circle cx="573.3096086184328" cy="88.08046228957147" r="4" fill="#6bcb77" stroke="none" stroke-width="0"/>
<circle cx="562.3468857535445" cy="341.49062460264554" r="4" fill="#6bcb77" stroke="none" stroke-width="0"/>
<circle cx="626.1971168508089" cy="121.95307371750869" r="4" fill="#6bcb77" stroke="none" stroke-width="0"/>
<circle cx="530.0778448449281" cy="388.00815017949037" r="4" fill="#6bcb77" stroke="none" stroke-width="0"/>
<circle cx="667.2929394395848" cy="125.45512238000876" r="4" fill="#6bcb77" stroke="none" stroke-width="0"/>
<circle cx="653.9752105184658" cy="259.71729744097144" r="4" fill="#6bcb77" stroke="none" stroke-width="0"/>
<circle cx="463.457350373312" cy="376.6190868100753" r="4" fill="#6bcb77" stroke="none" stroke-width="0"/>
<circle cx="673.7107823655566" cy="306.390763463325" r="4" fill="#6bcb77" stroke="none" stroke-width="0"/>
<circle cx="658.4144551444588" cy="204.01356384310947" r="4" fill="#6bcb77" stroke="none" stroke-width="0"/>
<circle cx="666.1559430041243" cy="165.23617689274627" r="4" fill="#6bcb77" stroke="none" stroke-width="0"/>
<circle cx="432.6904729837458" cy="328.5567921363117" r="4" fill="#6bcb77" stroke="none" stroke-width="0"/>
<circle cx="506.82132264493043" cy="45.386608652647524" r="4" fill="#6bcb77" stroke="none" stroke-width="0"/>
<circle cx="565.5172638295411" cy="378.0151883717231" r="4" fill="#6bcb77" stroke="none" stroke-width="0"/>
<circle cx="614.1405921456985" cy="346.86072315999314" r="4" fill="#6bcb77" stroke="none" stroke-width="0"/>
<circle cx="702.2331829471723" cy="242.47093938694314" r="4" fill="#6bcb77" stroke="none" stroke-width="0"/>
<circle cx="703.5918476014047" cy="278.8174852490216" r="4" fill="#6bcb77" stroke="none" stroke-width="0"/>
<circle cx="665.9422922451843" cy="46.50517995598042" r="4" fill="#6bcb77" stroke="none" stroke-width="0"/>
<circle cx="702.789526973153" cy="184.19140937618133" r="4" fill="#6bcb77" stroke="none" stroke-width="0"/>
<circle cx="703.4444624696748" cy="63.493366157321546" r="4" fill="#6bcb77" stroke="none" stroke-width="0"/>
<circle cx="731.3254028095704" cy="104.09378389878296" r="4" fill="#6bcb77" stroke="none" stroke-width="0"/>
<circle cx="718.1705298798705" cy="341.5458236317215" r="4" fill="#6bcb77" stroke="none" stroke-width="0"/>
<circle cx="502.30170279976625" cy="143.16387875327223" r="4" fill="#6bcb77" stroke="none" stroke-width="0"/>
<circle cx="688.2603826631657" cy="96.2844880908686" r="4" fill="#6bcb77" stroke="none" stroke-width="0"/>
<circle cx="601.7958791905266" cy="388.075839149481" r="4" fill="#6bcb77" stroke="none" stroke-width="0"/>
<circle cx="674.0746914765223" cy="368.3413562495793" r="4" fill="#6bcb77" stroke="none" stroke-width="0"/>
<circle cx="760.5414459052269" cy="179.85284965632263" r="4" fill="#6bcb77" stroke="none" stroke-width="0"/>
<circle cx="726.9995888236447" cy="212.04545292414497" r="4" fill="#6bcb77" stroke="none" stroke-width="0"/>
<circle cx="699.5515621661301" cy="143.545392125307" r="4" fill="#6bcb77" stroke="none" stroke-width="0"/>
<circle cx="763.7815426448116" cy="229.42201869383086" r="4" fill="#6bcb77" stroke="none" stroke-width="0"/>
<circle cx="638.2955224579512" cy="302.75616179870195" r="4" fill="#6bcb77" stroke="none" stroke-width="0"/>
<circle cx="738.7156683988721" cy="64.48209627410989" r="4" fill="#6bcb77" stroke="none" stroke-width="0"/>
<circle cx="752.4387615629903" cy="139.15933026044993" r="4" fill="#6bcb77" stroke="none" stroke-width="0"/>
<circle cx="736.6379810883745" cy="371.3939819035657" r="4" fill="#6bcb77" stroke="none" stroke-width="0"/>
<circle cx="774.9877667186361" cy="97.41498316244805" r="4" fill="#6bcb77" stroke="none" stroke-width="0"/>
<circle cx="771.0615164924396" cy="290.7304070141604" r="4" fill="#6bcb77" stroke="none" stroke-width="0"/>
<circle cx="767.3958402243823" cy="330.25475066307723" r="4" fill="#6bcb77" stroke="none" stroke-width="0"/>
<circle cx="774.7258356051905" cy="50.94758655942377" r="4" fill="#6bcb77" stroke="none" stroke-width="0"/>
<circle cx="735.68675033521" cy="259.0737281496525" r="4" fill="#6bcb77" stroke="none" stroke-width="0"/>
<circle cx="648.9182054819403" cy="341.62077687325626" r="4" fill="#6bcb77" stroke="none" stroke-width="0"/>
<circle cx="734.2399194570901" cy="299.0604312823258" r="4" fill="#6bcb77" stroke="none" stroke-width="0"/>
<circle cx="778.238760813098" cy="380.8940606704784" r="4" fill="#6bcb77" stroke="none" stroke-width="0"/>
<circle cx="640.9697862978735" cy="389.41614779289273" r="4" fill="#6bcb77" stroke="none" stroke-width="0"/>
<line x1="400" y1="40" x2="400" y2="390" stroke="#3a3a5a" stroke-width="1"/>
<text x="120" y="380" font-family="system-ui, sans-serif" font-size="12" fill="#808080">min_distance = 5 (263 points)</text>
<text x="520" y="380" font-family="system-ui, sans-serif" font-size="12" fill="#808080">min_distance = 10 (71 points)</text>

</svg>