<?xml version="1.0" encoding="UTF-8"?>
<svg xmlns="http://www.w3.org/2000/svg" viewBox="0 0 800 400" width="800" height="400">
<rect width="100%" height="100%" fill="#1a1a2e"/>
<text x="100" y="30" font-family="system-ui, sans-serif" font-size="16" fill="#e0e0e0">Ramer-Douglas-Peucker</text>
<polyline points="25.00,185.00 26.76,210.86 28.52,219.12 30.28,211.46 32.04,229.46 33.79,251.42 35.55,242.49 37.31,236.69 39.07,249.79 40.83,278.25 42.59,262.78 44.35,280.47 46.11,271.22 47.86,298.92 49.62,304.46 51.38,285.54 53.14,292.14 54.90,300.50 56.66,308.48 58.42,306.12 60.18,306.81 61.93,302.39 63.69,305.32 65.45,327.98 67.21,312.88 68.97,322.58 70.73,325.39 72.49,329.83 74.25,309.97 76.01,322.38 77.76,320.46 79.52,308.02 81.28,316.10 83.04,293.28 84.80,312.51 86.56,303.98 88.32,295.12 90.08,289.00 91.83,284.03 93.59,272.32 95.35,255.00 97.11,268.88 98.87,251.17 100.63,261.48 102.39,228.93 104.15,220.58 105.90,232.68 107.66,209.46 109.42,220.37 111.18,218.94 112.94,212.22 114.70,194.40 116.46,174.28 118.22,189.01 119.97,168.44 121.73,162.77 123.49,163.43 125.25,151.49 127.01,140.61 128.77,134.73 130.53,141.71 132.29,132.50 134.05,106.36 135.80,121.89 137.56,113.96 139.32,115.18 141.08,84.03 142.84,93.45 144.60,85.04 146.36,88.07 148.12,84.92 149.87,97.59 151.63,86.39 153.39,67.92 155.15,78.31 156.91,84.14 158.67,81.91 160.43,96.18 162.19,70.74 163.94,72.76 165.70,72.53 167.46,93.76 169.22,89.89 170.98,83.13 172.74,91.99 174.50,96.15 176.26,106.60 178.02,125.44 179.77,113.88 181.53,118.83 183.29,121.54 185.05,134.53 186.81,133.28 188.57,148.52 190.33,145.33 192.09,155.80 193.84,160.78 195.60,193.38 197.36,185.15 199.12,202.26 200.88,193.71 202.64,215.72 204.40,225.62 206.16,238.57 207.91,233.14 209.67,244.52 211.43,251.98 213.19,254.49 214.95,276.20 216.71,274.15 218.47,288.61 220.23,283.31 221.98,298.68 223.74,295.86 225.50,305.56 227.26,295.44 229.02,312.83 230.78,293.68 232.54,308.61 234.30,324.73 236.06,306.33 237.81,311.70 239.57,330.55 241.33,316.39 243.09,321.66 244.85,328.70 246.61,324.83 248.37,327.13 250.13,312.32 251.88,312.26 253.64,313.16 255.40,317.59 257.16,318.45 258.92,295.59 260.68,293.14 262.44,295.22 264.20,299.01 265.95,291.39 267.71,280.25 269.47,274.85 271.23,258.01 272.99,254.31 274.75,267.29 276.51,254.80 278.27,237.20 280.03,230.82 281.78,235.94 283.54,217.35 285.30,218.02 287.06,214.94 288.82,198.44 290.58,174.64 292.34,189.09 294.10,178.61 295.85,174.62 297.61,145.31 299.37,165.37 301.13,156.46 302.89,149.60 304.65,124.19 306.41,135.46 308.17,113.92 309.92,120.10 311.68,102.44 313.44,106.05 315.20,104.48 316.96,81.42 318.72,94.10 320.48,94.74 322.24,94.98 323.99,72.88 325.75,92.30 327.51,72.81 329.27,74.03 331.03,92.58 332.79,73.50 334.55,90.52 336.31,96.91 338.07,83.92 339.82,73.72 341.58,102.91 343.34,86.87 345.10,104.27 346.86,94.67 348.62,112.73 350.38,94.88 352.14,119.70 353.89,107.10 355.65,122.98 357.41,131.29 359.17,142.93 360.93,153.72 362.69,142.80 364.45,167.68 366.21,166.36 367.96,159.29 369.72,171.00 371.48,185.63 373.24,190.51 375.00,189.63" fill="none" stroke="#4a4a6a" stroke-width="1" stroke-linecap="round" stroke-linejoin="round"/>
<polyline points="25.00,185.00 40.83,278.25 42.59,262.78 49.62,304.46 51.38,285.54 72.49,329.83 153.39,67.92 160.43,96.18 162.19,70.74 167.46,93.76 170.98,83.13 214.95,276.20 239.57,330.55 241.33,316.39 244.85,328.70 250.13,312.32 257.16,318.45 272.99,254.31 274.75,267.29 323.99,72.88 336.31,96.91 339.82,73.72 348.62,112.73 350.38,94.88 375.00,189.63" fill="none" stroke="#00d4ff" stroke-width="2" stroke-linecap="round" stroke-linejoin="round"/>
<circle cx="25" cy="185.00002161292895" r="3" fill="#00d4ff" stroke="none" stroke-width="0"/>
<circle cx="40.82914572864322" cy="278.2511563989374" r="3" fill="#00d4ff" stroke="none" stroke-width="0"/>
<circle cx="42.58793969849246" cy="262.7811340537286" r="3" fill="#00d4ff" stroke="none" stroke-width="0"/>
<circle cx="49.62311557788945" cy="304.4644705516651" r="3" fill="#00d4ff" stroke="none" stroke-width="0"/>
<circle cx="51.38190954773869" cy="285.5400251303304" r="3" fill="#00d4ff" stroke="none" stroke-width="0"/>
<circle cx="72.48743718592965" cy="329.828216749855" r="3" fill="#00d4ff" stroke="none" stroke-width="0"/>
<circle cx="153.39195979899498" cy="67.92379681409986" r="3" fill="#00d4ff" stroke="none" stroke-width="0"/>
<circle cx="160.42713567839198" cy="96.1823165168731" r="3" fill="#00d4ff" stroke="none" stroke-width="0"/>
<circle cx="162.1859296482412" cy="70.74422055116413" r="3" fill="#00d4ff" stroke="none" stroke-width="0"/>
<circle cx="167.46231155778895" cy="93.75806113229153" r="3" fill="#00d4ff" stroke="none" stroke-width="0"/>
<circle cx="170.97989949748742" cy="83.13063230494602" r="3" fill="#00d4ff" stroke="none" stroke-width="0"/>
<circle cx="214.9497487437186" cy="276.2046543465093" r="3" fill="#00d4ff" stroke="none" stroke-width="0"/>
<circle cx="239.57286432160802" cy="330.5455604785093" r="3" fill="#00d4ff" stroke="none" stroke-width="0"/>
<circle cx="241.3316582914573" cy="316.3851523995284" r="3" fill="#00d4ff" stroke="none" stroke-width="0"/>
<circle cx="244.8492462311558" cy="328.7037313862527" r="3" fill="#00d4ff" stroke="none" stroke-width="0"/>
<circle cx="250.12562814070353" cy="312.31671344784905" r="3" fill="#00d4ff" stroke="none" stroke-width="0"/>
<circle cx="257.1608040201005" cy="318.45399237828514" r="3" fill="#00d4ff" stroke="none" stroke-width="0"/>
<circle cx="272.9899497487437" cy="254.31321872377126" r="3" fill="#00d4ff" stroke="none" stroke-width="0"/>
<circle cx="274.74874371859295" cy="267.2941283891035" r="3" fill="#00d4ff" stroke="none" stroke-width="0"/>
<circle cx="323.99497487437185" cy="72.87896525062996" r="3" fill="#00d4ff" stroke="none" stroke-width="0"/>
<circle cx="336.30653266331655" cy="96.90714329452533" r="3" fill="#00d4ff" stroke="none" stroke-width="0"/>
<circle cx="339.8241206030151" cy="73.72184521083207" r="3" fill="#00d4ff" stroke="none" stroke-width="0"/>
<circle cx="348.6180904522613" cy="112.7344535103876" r="3" fill="#00d4ff" stroke="none" stroke-width="0"/>
<circle cx="350.37688442211055" cy="94.88378532344416" r="3" fill="#00d4ff" stroke="none" stroke-width="0"/>
<circle cx="375" cy="189.62892659981298" r="3" fill="#00d4ff" stroke="none" stroke-width="0"/>
<text x="25" y="370" font-family="system-ui, sans-serif" font-size="12" fill="#808080">200 → 25 points</text>
<text x="500" y="30" font-family="system-ui, sans-serif" font-size="16" fill="#e0e0e0">Visvalingam-Whyatt</text>
<polyline points="425.00,185.00 426.76,210.86 428.52,219.12 430.28,211.46 432.04,229.46 433.79,251.42 435.55,242.49 437.31,236.69 439.07,249.79 440.83,278.25 442.59,262.78 444.35,280.47 446.11,271.22 447.86,298.92 449.62,304.46 451.38,285.54 453.14,292.14 454.90,300.50 456.66,308.48 458.42,306.12 460.18,306.81 461.93,302.39 463.69,305.32 465.45,327.98 467.21,312.88 468.97,322.58 470.73,325.39 472.49,329.83 474.25,309.97 476.01,322.38 477.76,320.46 479.52,308.02 481.28,316.10 483.04,293.28 484.80,312.51 486.56,303.98 488.32,295.12 490.08,289.00 491.83,284.03 493.59,272.32 495.35,255.00 497.11,268.88 498.87,251.17 500.63,261.48 502.39,228.93 504.15,220.58 505.90,232.68 507.66,209.46 509.42,220.37 511.18,218.94 512.94,212.22 514.70,194.40 516.46,174.28 518.22,189.01 519.97,168.44 521.73,162.77 523.49,163.43 525.25,151.49 527.01,140.61 528.77,134.73 530.53,141.71 532.29,132.50 534.05,106.36 535.80,121.89 537.56,113.96 539.32,115.18 541.08,84.03 542.84,93.45 544.60,85.04 546.36,88.07 548.12,84.92 549.87,97.59 551.63,86.39 553.39,67.92 555.15,78.31 556.91,84.14 558.67,81.91 560.43,96.18 562.19,70.74 563.94,72.76 565.70,72.53 567.46,93.76 569.22,89.89 570.98,83.13 572.74,91.99 574.50,96.15 576.26,106.60 578.02,125.44 579.77,113.88 581.53,118.83 583.29,121.54 585.05,134.53 586.81,133.28 588.57,148.52 590.33,145.33 592.09,155.80 593.84,160.78 595.60,193.38 597.36,185.15 599.12,202.26 600.88,193.71 602.64,215.72 604.40,225.62 606.16,238.57 607.91,233.14 609.67,244.52 611.43,251.98 613.19,254.49 614.95,276.20 616.71,274.15 618.47,288.61 620.23,283.31 621.98,298.68 623.74,295.86 625.50,305.56 627.26,295.44 629.02,312.83 630.78,293.68 632.54,308.61 634.30,324.73 636.06,306.33 637.81,311.70 639.57,330.55 641.33,316.39 643.09,321.66 644.85,328.70 646.61,324.83 648.37,327.13 650.13,312.32 651.88,312.26 653.64,313.16 655.40,317.59 657.16,318.45 658.92,295.59 660.68,293.14 662.44,295.22 664.20,299.01 665.95,291.39 667.71,280.25 669.47,274.85 671.23,258.01 672.99,254.31 674.75,267.29 676.51,254.80 678.27,237.20 680.03,230.82 681.78,235.94 683.54,217.35 685.30,218.02 687.06,214.94 688.82,198.44 690.58,174.64 692.34,189.09 694.10,178.61 695.85,174.62 697.61,145.31 699.37,165.37 701.13,156.46 702.89,149.60 704.65,124.19 706.41,135.46 708.17,113.92 709.92,120.10 711.68,102.44 713.44,106.05 715.20,104.48 716.96,81.42 718.72,94.10 720.48,94.74 722.24,94.98 723.99,72.88 725.75,92.30 727.51,72.81 729.27,74.03 731.03,92.58 732.79,73.50 734.55,90.52 736.31,96.91 738.07,83.92 739.82,73.72 741.58,102.91 743.34,86.87 745.10,104.27 746.86,94.67 748.62,112.73 750.38,94.88 752.14,119.70 753.89,107.10 755.65,122.98 757.41,131.29 759.17,142.93 760.93,153.72 762.69,142.80 764.45,167.68 766.21,166.36 767.96,159.29 769.72,171.00 771.48,185.63 773.24,190.51 775.00,189.63" fill="none" stroke="#4a4a6a" stroke-width="1" stroke-linecap="round" stroke-linejoin="round"/>
<polyline points="425.00,185.00 440.83,278.25 472.49,329.83 484.80,312.51 502.39,228.93 512.94,212.22 541.08,84.03 553.39,67.92 570.98,83.13 593.84,160.78 606.16,238.57 629.02,312.83 648.37,327.13 664.20,299.01 687.06,214.94 690.58,174.64 723.99,72.88 750.38,94.88 764.45,167.68 775.00,189.63" fill="none" stroke="#ff6b6b" stroke-width="2" stroke-linecap="round" stroke-linejoin="round"/>
<circle cx="425" cy="185.00002161292895" r="3" fill="#ff6b6b" stroke="none" stroke-width="0"/>
<circle cx="440.8291457286432" cy="278.2511563989374" r="3" fill="#ff6b6b" stroke="none" stroke-width="0"/>
<circle cx="472.48743718592965" cy="329.828216749855" r="3" fill="#ff6b6b" stroke="none" stroke-width="0"/>
<circle cx="484.7989949748744" cy="312.51087916029775" r="3" fill="#ff6b6b" stroke="none" stroke-width="0"/>
<circle cx="502.38693467336685" cy="228.93040048487674" r="3" fill="#ff6b6b" stroke="none" stroke-width="0"/>
<circle cx="512.9396984924623" cy="212.22272390234536" r="3" fill="#ff6b6b" stroke="none" stroke-width="0"/>
<circle cx="541.0804020100502" cy="84.03235137542225" r="3" fill="#ff6b6b" stroke="none" stroke-width="0"/>
<circle cx="553.391959798995" cy="67.92379681409986" r="3" fill="#ff6b6b" stroke="none" stroke-width="0"/>
<circle cx="570.9798994974874" cy="83.13063230494602" r="3" fill="#ff6b6b" stroke="none" stroke-width="0"/>
<circle cx="593.8442211055276" cy="160.7752950194951" r="3" fill="#ff6b6b" stroke="none" stroke-width="0"/>
<circle cx="606.1557788944724" cy="238.56843635229328" r="3" fill="#ff6b6b" stroke="none" stroke-width="0"/>
<circle cx="629.0201005025126" cy="312.8284224380906" r="3" fill="#ff6b6b" stroke="none" stroke-width="0"/>
<circle cx="648.3668341708543" cy="327.12806591830724" r="3" fill="#ff6b6b" stroke="none" stroke-width="0"/>
<circle cx="664.1959798994975" cy="299.00698938859404" r="3" fill="#ff6b6b" stroke="none" stroke-width="0"/>
<circle cx="687.0603015075377" cy="214.9433466607142" r="3" fill="#ff6b6b" stroke="none" stroke-width="0"/>
<circle cx="690.5778894472362" cy="174.63688686255887" r="3" fill="#ff6b6b" stroke="none" stroke-width="0"/>
<circle cx="723.9949748743718" cy="72.87896525062996" r="3" fill="#ff6b6b" stroke="none" stroke-width="0"/>
<circle cx="750.3768844221106" cy="94.88378532344416" r="3" fill="#ff6b6b" stroke="none" stroke-width="0"/>
<circle cx="764.4472361809045" cy="167.68473636112736" r="3" fill="#ff6b6b" stroke="none" stroke-width="0"/>
<circle cx="775" cy="189.62892659981298" r="3" fill="#ff6b6b" stroke="none" stroke-width="0"/>
<text x="425" y="370" font-family="system-ui, sans-serif" font-size="12" fill="#808080">200 → 20 points</text>
<text x="250" y="390" font-family="system-ui, sans-serif" font-size="12" fill="#606060">Original curve (gray) vs Simplified (colored)</text>

</svg>