<svg xmlns="http://www.w3.org/2000/svg" width="800" height="300" viewBox="0.00 0.00 800.00 300.00"><rect x="0.00" y="0.00" width="800.00" height="300.00" fill="#1a1a2e"/><path d="M 200.00 80.00 L 260.62 115.00 L 260.62 185.00 L 200.00 220.00 L 139.38 185.00 L 139.38 115.00 Z" fill="none" stroke="#3498db" stroke-width="2" fill-rule="nonzero"/><path d="M 200.00 110.00 L 234.64 130.00 L 234.64 170.00 L 200.00 190.00 L 165.36 170.00 L 165.36 130.00 Z" fill="none" stroke="#9b59b6" stroke-width="2" fill-rule="nonzero"/><path d="M 200.00 130.00 L 217.32 140.00 L 217.32 160.00 L 200.00 170.00 L 182.68 160.00 L 182.68 140.00 Z" fill="none" stroke="#e74c3c" stroke-width="2" fill-rule="nonzero"/><path d="M 200.00 146.00 L 203.46 148.00 L 203.46 152.00 L 200.00 154.00 L 196.54 152.00 L 196.54 148.00 Z" fill="none" stroke="#f39c12" stroke-width="2" fill-rule="nonzero"/><path d="M 200.00 50.00 L 286.60 100.00 L 286.60 200.00 L 200.00 250.00 L 113.40 200.00 L 113.40 100.00 Z" fill="none" stroke="#ecf0f1" stroke-width="3" fill-rule="nonzero"/><circle cx="200.00" cy="50.00" r="4.00" fill="#ecf0f1" stroke="#1a1a2e" stroke-width="1.5"/><circle cx="286.60" cy="100.00" r="4.00" fill="#ecf0f1" stroke="#1a1a2e" stroke-width="1.5"/><circle cx="286.60" cy="200.00" r="4.00" fill="#ecf0f1" stroke="#1a1a2e" stroke-width="1.5"/><circle cx="200.00" cy="250.00" r="4.00" fill="#ecf0f1" stroke="#1a1a2e" stroke-width="1.5"/><circle cx="113.40" cy="200.00" r="4.00" fill="#ecf0f1" stroke="#1a1a2e" stroke-width="1.5"/><circle cx="113.40" cy="100.00" r="4.00" fill="#ecf0f1" stroke="#1a1a2e" stroke-width="1.5"/><path d="M 600.00 75.52 L 670.84 126.98 L 643.78 210.26 L 556.22 210.26 L 529.16 126.98 Z" fill="none" stroke="#3498db" stroke-width="2" fill-rule="nonzero"/><path d="M 600.00 101.04 L 646.56 134.87 L 628.78 189.61 L 571.22 189.61 L 553.44 134.87 Z" fill="none" stroke="#9b59b6" stroke-width="2" fill-rule="nonzero"/><path d="M 600.00 126.56 L 622.29 142.76 L 613.78 168.96 L 586.22 168.96 L 577.71 142.76 Z" fill="none" stroke="#e74c3c" stroke-width="2" fill-rule="nonzero"/><path d="M 600.00 143.57 L 606.11 148.01 L 603.78 155.20 L 596.22 155.20 L 593.89 148.01 Z" fill="none" stroke="#f39c12" stroke-width="2" fill-rule="nonzero"/><path d="M 600.00 50.00 L 695.11 119.10 L 658.78 230.90 L 541.22 230.90 L 504.89 119.10 Z" fill="none" stroke="#ecf0f1" stroke-width="3" fill-rule="nonzero"/><circle cx="600.00" cy="50.00" r="4.00" fill="#ecf0f1" stroke="#1a1a2e" stroke-width="1.5"/><circle cx="695.11" cy="119.10" r="4.00" fill="#ecf0f1" stroke="#1a1a2e" stroke-width="1.5"/><circle cx="658.78" cy="230.90" r="4.00" fill="#ecf0f1" stroke="#1a1a2e" stroke-width="1.5"/><circle cx="541.22" cy="230.90" r="4.00" fill="#ecf0f1" stroke="#1a1a2e" stroke-width="1.5"/><circle cx="504.89" cy="119.10" r="4.00" fill="#ecf0f1" stroke="#1a1a2e" stroke-width="1.5"/></svg>