<svg xmlns="http://www.w3.org/2000/svg" width="400" height="300" viewBox="0.00 0.00 400.00 300.00"><rect x="0.00" y="0.00" width="400.00" height="300.00" fill="white"/><path d="M 200.00 80.00 L 260.62 115.00 L 260.62 185.00 L 200.00 220.00 L 139.38 185.00 L 139.38 115.00 Z" fill="none" stroke="#3498db" stroke-width="2" fill-rule="nonzero"/><path d="M 200.00 110.00 L 234.64 130.00 L 234.64 170.00 L 200.00 190.00 L 165.36 170.00 L 165.36 130.00 Z" fill="none" stroke="#9b59b6" stroke-width="2" fill-rule="nonzero"/><path d="M 200.00 130.00 L 217.32 140.00 L 217.32 160.00 L 200.00 170.00 L 182.68 160.00 L 182.68 140.00 Z" fill="none" stroke="#e74c3c" stroke-width="2" fill-rule="nonzero"/><path d="M 200.00 146.00 L 203.46 148.00 L 203.46 152.00 L 200.00 154.00 L 196.54 152.00 L 196.54 148.00 Z" fill="none" stroke="#f39c12" stroke-width="2" fill-rule="nonzero"/><path d="M 200.00 50.00 L 286.60 100.00 L 286.60 200.00 L 200.00 250.00 L 113.40 200.00 L 113.40 100.00 Z" fill="none" stroke="#2c3e50" stroke-width="3" fill-rule="nonzero"/><circle cx="200.00" cy="50.00" r="4.00" fill="#2c3e50" stroke="#fff" stroke-width="1.5"/><circle cx="286.60" cy="100.00" r="4.00" fill="#2c3e50" stroke="#fff" stroke-width="1.5"/><circle cx="286.60" cy="200.00" r="4.00" fill="#2c3e50" stroke="#fff" stroke-width="1.5"/><circle cx="200.00" cy="250.00" r="4.00" fill="#2c3e50" stroke="#fff" stroke-width="1.5"/><circle cx="113.40" cy="200.00" r="4.00" fill="#2c3e50" stroke="#fff" stroke-width="1.5"/><circle cx="113.40" cy="100.00" r="4.00" fill="#2c3e50" stroke="#fff" stroke-width="1.5"/></svg>