<svg xmlns="http://www.w3.org/2000/svg" width="800" height="300" viewBox="0.00 0.00 800.00 300.00"><rect x="0.00" y="0.00" width="800.00" height="300.00" fill="#0f0f23"/><path d="M 310.00 100.00 L 310.00 100.00 L 310.00 100.00 L 350.00 100.00 L 350.00 100.00 L 350.00 100.00 L 350.00 95.00 L 350.00 95.00 L 350.00 95.00 L 350.00 92.22 L 350.00 92.22 L 350.00 92.22 L 350.00 60.00 L 350.00 60.00 L 316.67 20.00 L 580.00 20.00 L 580.00 20.00 L 580.00 20.00 L 580.00 48.00 L 500.00 80.00 L 500.00 80.00 L 500.00 93.33 L 500.00 93.33 L 500.00 93.33 L 500.00 140.00 L 500.00 140.00 L 500.00 140.00 L 500.00 150.00 L 580.00 174.00 L 580.00 174.00 L 580.00 280.00 L 580.00 280.00 L 580.00 280.00 L 528.00 280.00 L 528.00 280.00 L 480.00 220.00 L 400.00 180.00 L 400.00 180.00 L 400.00 280.00 L 385.45 280.00 L 385.45 280.00 L 390.00 230.00 L 390.00 200.00 L 390.00 200.00 L 390.00 200.00 L 370.91 200.00 L 370.91 200.00 L 370.91 200.00 L 360.00 200.00 L 360.00 200.00 L 320.00 280.00 L 220.00 280.00 L 220.00 280.00 L 220.00 280.00 L 220.00 200.00 L 220.00 200.00 L 310.00 160.00 L 310.00 150.00 L 310.00 150.00 L 310.00 150.00 Z" fill="rgba(255,215,0,0.3)" stroke="#ffd700" stroke-width="1" fill-rule="nonzero"/><path d="M 220.00 20.00 L 580.00 20.00 L 580.00 280.00 L 220.00 280.00 Z" fill="none" stroke="#4a4a6a" stroke-width="2" fill-rule="nonzero"/><path d="M 280.00 60.00 L 350.00 60.00 L 350.00 100.00 L 310.00 100.00 L 310.00 160.00 L 280.00 160.00 Z" fill="#2a2a4a" stroke="#6a6a8a" stroke-width="1.5" fill-rule="nonzero"/><path d="M 400.00 180.00 L 480.00 220.00 L 400.00 260.00 Z" fill="#2a2a4a" stroke="#6a6a8a" stroke-width="1.5" fill-rule="nonzero"/><path d="M 500.00 80.00 L 550.00 80.00 L 550.00 150.00 L 500.00 150.00 Z" fill="#2a2a4a" stroke="#6a6a8a" stroke-width="1.5" fill-rule="nonzero"/><path d="M 360.00 200.00 L 390.00 200.00 L 390.00 230.00 L 360.00 230.00 Z" fill="#2a2a4a" stroke="#6a6a8a" stroke-width="1.5" fill-rule="nonzero"/><line x1="400.00" y1="120.00" x2="310.00" y2="100.00" stroke="rgba(255,215,0,0.15)" stroke-width="0.5" stroke-linecap="round"/><line x1="400.00" y1="120.00" x2="310.00" y2="100.00" stroke="rgba(255,215,0,0.15)" stroke-width="0.5" stroke-linecap="round"/><line x1="400.00" y1="120.00" x2="310.00" y2="100.00" stroke="rgba(255,215,0,0.15)" stroke-width="0.5" stroke-linecap="round"/><line x1="400.00" y1="120.00" x2="350.00" y2="100.00" stroke="rgba(255,215,0,0.15)" stroke-width="0.5" stroke-linecap="round"/><line x1="400.00" y1="120.00" x2="350.00" y2="100.00" stroke="rgba(255,215,0,0.15)" stroke-width="0.5" stroke-linecap="round"/><line x1="400.00" y1="120.00" x2="350.00" y2="100.00" stroke="rgba(255,215,0,0.15)" stroke-width="0.5" stroke-linecap="round"/><line x1="400.00" y1="120.00" x2="350.00" y2="95.00" stroke="rgba(255,215,0,0.15)" stroke-width="0.5" stroke-linecap="round"/><line x1="400.00" y1="120.00" x2="350.00" y2="95.00" stroke="rgba(255,215,0,0.15)" stroke-width="0.5" stroke-linecap="round"/><line x1="400.00" y1="120.00" x2="350.00" y2="95.00" stroke="rgba(255,215,0,0.15)" stroke-width="0.5" stroke-linecap="round"/><line x1="400.00" y1="120.00" x2="350.00" y2="92.22" stroke="rgba(255,215,0,0.15)" stroke-width="0.5" stroke-linecap="round"/><line x1="400.00" y1="120.00" x2="350.00" y2="92.22" stroke="rgba(255,215,0,0.15)" stroke-width="0.5" stroke-linecap="round"/><line x1="400.00" y1="120.00" x2="350.00" y2="92.22" stroke="rgba(255,215,0,0.15)" stroke-width="0.5" stroke-linecap="round"/><line x1="400.00" y1="120.00" x2="350.00" y2="60.00" stroke="rgba(255,215,0,0.15)" stroke-width="0.5" stroke-linecap="round"/><line x1="400.00" y1="120.00" x2="350.00" y2="60.00" stroke="rgba(255,215,0,0.15)" stroke-width="0.5" stroke-linecap="round"/><line x1="400.00" y1="120.00" x2="316.67" y2="20.00" stroke="rgba(255,215,0,0.15)" stroke-width="0.5" stroke-linecap="round"/><line x1="400.00" y1="120.00" x2="580.00" y2="20.00" stroke="rgba(255,215,0,0.15)" stroke-width="0.5" stroke-linecap="round"/><line x1="400.00" y1="120.00" x2="580.00" y2="20.00" stroke="rgba(255,215,0,0.15)" stroke-width="0.5" stroke-linecap="round"/><line x1="400.00" y1="120.00" x2="580.00" y2="20.00" stroke="rgba(255,215,0,0.15)" stroke-width="0.5" stroke-linecap="round"/><line x1="400.00" y1="120.00" x2="580.00" y2="48.00" stroke="rgba(255,215,0,0.15)" stroke-width="0.5" stroke-linecap="round"/><line x1="400.00" y1="120.00" x2="500.00" y2="80.00" stroke="rgba(255,215,0,0.15)" stroke-width="0.5" stroke-linecap="round"/><circle cx="400.00" cy="120.00" r="8.00" fill="#ffd700" stroke="#fff" stroke-width="2"/><circle cx="400.00" cy="120.00" r="4.00" fill="#fff" stroke="none" stroke-width="0"/></svg>