<svg xmlns="http://www.w3.org/2000/svg" width="400" height="300" viewBox="0.00 0.00 400.00 300.00"><rect x="0.00" y="0.00" width="400.00" height="300.00" fill="#0f0f23"/><path d="M 110.00 100.00 L 110.00 100.00 L 110.00 100.00 L 150.00 100.00 L 150.00 100.00 L 150.00 100.00 L 150.00 95.00 L 150.00 95.00 L 150.00 95.00 L 150.00 92.22 L 150.00 92.22 L 150.00 92.22 L 150.00 60.00 L 150.00 60.00 L 116.67 20.00 L 380.00 20.00 L 380.00 20.00 L 380.00 20.00 L 380.00 48.00 L 300.00 80.00 L 300.00 80.00 L 300.00 93.33 L 300.00 93.33 L 300.00 93.33 L 300.00 140.00 L 300.00 140.00 L 300.00 140.00 L 300.00 150.00 L 380.00 174.00 L 380.00 174.00 L 380.00 280.00 L 380.00 280.00 L 380.00 280.00 L 328.00 280.00 L 328.00 280.00 L 280.00 220.00 L 200.00 180.00 L 200.00 180.00 L 200.00 280.00 L 185.45 280.00 L 185.45 280.00 L 190.00 230.00 L 190.00 200.00 L 190.00 200.00 L 190.00 200.00 L 170.91 200.00 L 170.91 200.00 L 170.91 200.00 L 160.00 200.00 L 160.00 200.00 L 120.00 280.00 L 20.00 280.00 L 20.00 280.00 L 20.00 280.00 L 20.00 200.00 L 20.00 200.00 L 110.00 160.00 L 110.00 150.00 L 110.00 150.00 L 110.00 150.00 Z" fill="rgba(255,215,0,0.3)" stroke="#ffd700" stroke-width="1" fill-rule="nonzero"/><path d="M 20.00 20.00 L 380.00 20.00 L 380.00 280.00 L 20.00 280.00 Z" fill="none" stroke="#4a4a6a" stroke-width="2" fill-rule="nonzero"/><path d="M 80.00 60.00 L 150.00 60.00 L 150.00 100.00 L 110.00 100.00 L 110.00 160.00 L 80.00 160.00 Z" fill="#2a2a4a" stroke="#6a6a8a" stroke-width="1.5" fill-rule="nonzero"/><path d="M 200.00 180.00 L 280.00 220.00 L 200.00 260.00 Z" fill="#2a2a4a" stroke="#6a6a8a" stroke-width="1.5" fill-rule="nonzero"/><path d="M 300.00 80.00 L 350.00 80.00 L 350.00 150.00 L 300.00 150.00 Z" fill="#2a2a4a" stroke="#6a6a8a" stroke-width="1.5" fill-rule="nonzero"/><path d="M 160.00 200.00 L 190.00 200.00 L 190.00 230.00 L 160.00 230.00 Z" fill="#2a2a4a" stroke="#6a6a8a" stroke-width="1.5" fill-rule="nonzero"/><line x1="200.00" y1="120.00" x2="110.00" y2="100.00" stroke="rgba(255,215,0,0.15)" stroke-width="0.5" stroke-linecap="round"/><line x1="200.00" y1="120.00" x2="110.00" y2="100.00" stroke="rgba(255,215,0,0.15)" stroke-width="0.5" stroke-linecap="round"/><line x1="200.00" y1="120.00" x2="110.00" y2="100.00" stroke="rgba(255,215,0,0.15)" stroke-width="0.5" stroke-linecap="round"/><line x1="200.00" y1="120.00" x2="150.00" y2="100.00" stroke="rgba(255,215,0,0.15)" stroke-width="0.5" stroke-linecap="round"/><line x1="200.00" y1="120.00" x2="150.00" y2="100.00" stroke="rgba(255,215,0,0.15)" stroke-width="0.5" stroke-linecap="round"/><line x1="200.00" y1="120.00" x2="150.00" y2="100.00" stroke="rgba(255,215,0,0.15)" stroke-width="0.5" stroke-linecap="round"/><line x1="200.00" y1="120.00" x2="150.00" y2="95.00" stroke="rgba(255,215,0,0.15)" stroke-width="0.5" stroke-linecap="round"/><line x1="200.00" y1="120.00" x2="150.00" y2="95.00" stroke="rgba(255,215,0,0.15)" stroke-width="0.5" stroke-linecap="round"/><line x1="200.00" y1="120.00" x2="150.00" y2="95.00" stroke="rgba(255,215,0,0.15)" stroke-width="0.5" stroke-linecap="round"/><line x1="200.00" y1="120.00" x2="150.00" y2="92.22" stroke="rgba(255,215,0,0.15)" stroke-width="0.5" stroke-linecap="round"/><line x1="200.00" y1="120.00" x2="150.00" y2="92.22" stroke="rgba(255,215,0,0.15)" stroke-width="0.5" stroke-linecap="round"/><line x1="200.00" y1="120.00" x2="150.00" y2="92.22" stroke="rgba(255,215,0,0.15)" stroke-width="0.5" stroke-linecap="round"/><line x1="200.00" y1="120.00" x2="150.00" y2="60.00" stroke="rgba(255,215,0,0.15)" stroke-width="0.5" stroke-linecap="round"/><line x1="200.00" y1="120.00" x2="150.00" y2="60.00" stroke="rgba(255,215,0,0.15)" stroke-width="0.5" stroke-linecap="round"/><line x1="200.00" y1="120.00" x2="116.67" y2="20.00" stroke="rgba(255,215,0,0.15)" stroke-width="0.5" stroke-linecap="round"/><line x1="200.00" y1="120.00" x2="380.00" y2="20.00" stroke="rgba(255,215,0,0.15)" stroke-width="0.5" stroke-linecap="round"/><line x1="200.00" y1="120.00" x2="380.00" y2="20.00" stroke="rgba(255,215,0,0.15)" stroke-width="0.5" stroke-linecap="round"/><line x1="200.00" y1="120.00" x2="380.00" y2="20.00" stroke="rgba(255,215,0,0.15)" stroke-width="0.5" stroke-linecap="round"/><line x1="200.00" y1="120.00" x2="380.00" y2="48.00" stroke="rgba(255,215,0,0.15)" stroke-width="0.5" stroke-linecap="round"/><line x1="200.00" y1="120.00" x2="300.00" y2="80.00" stroke="rgba(255,215,0,0.15)" stroke-width="0.5" stroke-linecap="round"/><circle cx="200.00" cy="120.00" r="8.00" fill="#ffd700" stroke="#fff" stroke-width="2"/><circle cx="200.00" cy="120.00" r="4.00" fill="#fff" stroke="none" stroke-width="0"/></svg>